<svg xmlns="http://www.w3.org/2000/svg" width="156.168" height="91" viewBox="0 0 156.168 91">
  <g id="Grupo_81" data-name="Grupo 81" transform="translate(-1289.578 -2436.395)">
    <path id="Trazado_120" data-name="Trazado 120" d="M1445.746,2505.652a3.792,3.792,0,0,1-3.923,2.235c-6.045-.065-12.091-.018-18.136-.028a4.074,4.074,0,0,1-4.158-3.287,392.561,392.561,0,0,0-17.021-47.348,22.976,22.976,0,0,0-1.571-3.124c-1.441-2.318-.748-3.88,1.944-4.937a76.05,76.05,0,0,1,19-4.755c6.545-.763,13.146-1.054,19.719-1.591a3.94,3.94,0,0,1,4.146,2.137Z" fill="#fff"/>
    <path id="Trazado_121" data-name="Trazado 121" d="M1397.595,2516.248c-1.671,2.588-4.005,3.667-6.745,3.07a4.227,4.227,0,0,1-1.867-1.194c-4.875-4.828-9.714-9.692-14.57-14.54a10.793,10.793,0,0,0-1.471-1.32,3.185,3.185,0,0,0-4.41,4.383,8.629,8.629,0,0,0,1.11,1.249c4.416,4.425,8.815,8.868,13.281,13.242a1.849,1.849,0,0,1,.47,2.5,4.335,4.335,0,0,1-7.185,1.261q-6.047-6.029-12.075-12.076a3.382,3.382,0,0,0-3.39-1.245,3.21,3.21,0,0,0-1.41,5.522c2.87,2.951,5.8,5.839,8.724,8.743.4.393.859.716,1.291,1.072l-.143.4a8.38,8.38,0,0,1-2.561-.04c-2.428-.824-5.15-1.357-7.128-2.842-10.034-7.532-19.911-15.276-29.74-23.075a57.081,57.081,0,0,1-5.85-6,1.4,1.4,0,0,1-.237-1.175,350.182,350.182,0,0,0,10.006-37.643,5.011,5.011,0,0,1,.22-.612h12.68c-.378.471-.633.811-.912,1.131a35.012,35.012,0,0,0-7.125,11.786,21.163,21.163,0,0,0-.97,4.449,8.019,8.019,0,0,0,5.809,8.563c7.3,2.419,13.1.109,18.086-5.3a6.448,6.448,0,0,1,2.235-1.273c1.42-.61,2.912-1.061,4.312-1.712,1-.466,1.727-.786,2.8.109,9.827,8.207,19.753,16.3,29.559,24.527a40.471,40.471,0,0,1,5.269,5.691,12.2,12.2,0,0,1,2.057,3.859,3.512,3.512,0,0,1-5.7,3.84c-5.912-5.8-11.751-11.681-17.6-17.546-.933-.935-1.933-1.7-3.349-1.376a3.245,3.245,0,0,0-2.533,2.378,3.154,3.154,0,0,0,1.07,3.287q5.763,5.775,11.536,11.538C1393.262,2511.994,1395.405,2514.088,1397.595,2516.248Z" fill="#fff"/>
    <path id="Trazado_122" data-name="Trazado 122" d="M1289.579,2468.979q0-14.173,0-28.347c0-3.208,1.263-4.462,4.443-4.2,8.4.68,16.826,1.257,25.01,3.408a47.149,47.149,0,0,1,7.567,3.059c1.894.871,2.287,2.547,1.916,4.5-1.044,5.479-1.757,11.041-3.147,16.429-2.836,11-6.144,21.87-9.026,32.855-1.36,5.186-2.664,4.706-6.3,4.7-5.538,0-11.075.006-16.612,0-2.793,0-3.844-1.072-3.846-3.9Q1289.572,2483.228,1289.579,2468.979Z" fill="#fff"/>
    <path id="Trazado_123" data-name="Trazado 123" d="M1412.142,2500.123a3.8,3.8,0,0,1-.555-.455c-6.234-7.391-13.786-13.337-21.2-19.45-5.214-4.3-10.271-8.787-15.4-13.186a5.4,5.4,0,0,0-5.526-1.113c-1.865.645-3.637,1.556-5.48,2.271a8.748,8.748,0,0,1-2.493.59,4.221,4.221,0,0,0-3.305,1.879,23.526,23.526,0,0,1-2.541,3.026c-2.636,2.566-5.7,3.044-9.145,1.8-1.411-.511-2-1.409-1.64-2.776a20.979,20.979,0,0,1,1.607-4.571A42.75,42.75,0,0,1,1362.8,2451.7c4.147-2.462,8.607-2.1,12.96-.51,5.1,1.866,10.125,3.914,15.193,5.861a34.314,34.314,0,0,0,4.316,1.478,3.354,3.354,0,0,1,2.553,2.281c3.764,9.857,7.557,19.7,11.3,29.567,1.027,2.7,1.933,5.451,2.888,8.181.161.46.286.933.428,1.4Z" fill="#fff"/>
  </g>
</svg>
