<svg xmlns="http://www.w3.org/2000/svg" width="46.778" height="46.778" viewBox="0 0 46.778 46.778">
  <g id="Grupo_7" data-name="Grupo 7" transform="translate(-3385.554 -2931.093)">
    <circle id="Elipse_2" data-name="Elipse 2" cx="23.389" cy="23.389" r="23.389" transform="translate(3385.554 2931.093)" fill="#095966"/>
    <g id="Grupo_6" data-name="Grupo 6">
      <g id="Grupo_5" data-name="Grupo 5">
        <path id="Trazado_4" data-name="Trazado 4" d="M3405.02,2938.957c.088.063.173.132.266.186q1.916,1.11,3.835,2.214c.157.09.237.166.191.374a3.934,3.934,0,0,0,2.674,4.686c.077.025.153.052.248.085,0,.1.012.2.012.293,0,1.5,0,3,0,4.493a.42.42,0,0,1-.236.43q-1.86,1.053-3.7,2.136a.34.34,0,0,1-.472-.029,3.923,3.923,0,0,0-5.363.241.279.279,0,0,1-.409.054q-2.082-1.215-4.176-2.41a.378.378,0,0,1-.225-.376q.014-2.382,0-4.766a.309.309,0,0,1,.231-.355,3.936,3.936,0,0,0,2.52-4.431c-.037-.194.072-.246.2-.318q2.01-1.158,4.017-2.321c.094-.054.178-.123.267-.186Z" fill="#fff"/>
        <path id="Trazado_5" data-name="Trazado 5" d="M3420.843,2962.189a4.029,4.029,0,0,0-3.159,5.507c-.485.281-.974.565-1.463.847-.8.461-1.6.915-2.387,1.386a.417.417,0,0,1-.49-.006q-3.386-1.967-6.78-3.914a.461.461,0,0,1-.267-.474q.015-2.278,0-4.556a.343.343,0,0,1,.273-.388,3.919,3.919,0,0,0,2.594-4.547.273.273,0,0,1,.149-.343c1.37-.781,2.733-1.576,4.1-2.356a.409.409,0,0,1,.344,0q3.476,1.99,6.937,4a.359.359,0,0,1,.171.242c.006,1.518,0,3.037,0,4.555C3420.866,2962.15,3420.857,2962.159,3420.843,2962.189Z" fill="#fff"/>
        <path id="Trazado_6" data-name="Trazado 6" d="M3415.293,2942.646a2.131,2.131,0,1,1-2.133-2.148A2.149,2.149,0,0,1,3415.293,2942.646Z" fill="#fff"/>
        <path id="Trazado_7" data-name="Trazado 7" d="M3405.292,2954.715a2.138,2.138,0,1,1-2.141,2.119A2.16,2.16,0,0,1,3405.292,2954.715Z" fill="#fff"/>
        <path id="Trazado_8" data-name="Trazado 8" d="M3423.5,2966.17a2.13,2.13,0,1,1-2.108-2.173A2.135,2.135,0,0,1,3423.5,2966.17Z" fill="#fff"/>
        <path id="Trazado_9" data-name="Trazado 9" d="M3398.654,2942.5a2.132,2.132,0,0,1-4.264.011,2.132,2.132,0,1,1,4.264-.011Z" fill="#fff"/>
      </g>
    </g>
  </g>
</svg>
