<svg xmlns="http://www.w3.org/2000/svg" width="46.778" height="46.778" viewBox="0 0 46.778 46.778">
  <g id="Grupo_3" data-name="Grupo 3" transform="translate(-3382.907 -3114.405)">
    <circle id="Elipse_1" data-name="Elipse 1" cx="23.389" cy="23.389" r="23.389" transform="translate(3382.907 3114.405)" fill="#095966"/>
    <g id="Grupo_2" data-name="Grupo 2">
      <g id="Grupo_1" data-name="Grupo 1">
        <path id="Trazado_1" data-name="Trazado 1" d="M3404.6,3152.7a15.793,15.793,0,0,1-9.508-2.308,11.128,11.128,0,0,1-4.645-7.749l-2.257.316a.529.529,0,0,1-.491-.856l5.249-6.458a.528.528,0,0,1,.743-.077l6.652,5.383a.529.529,0,0,1-.3.939l-2.378.137s-1.19,2.979,1.9,6.042a26.591,26.591,0,0,0,5.266,3.642A.528.528,0,0,1,3404.6,3152.7Z" fill="#fff"/>
        <path id="Trazado_2" data-name="Trazado 2" d="M3406.786,3131.715l1.066-2.336s-1.992-2.31-6.185-1.157a26.583,26.583,0,0,0-5.781,2.753.528.528,0,0,1-.743-.693,15.8,15.8,0,0,1,6.734-7.092,11.7,11.7,0,0,1,9.119-.314l.763-1.971a.529.529,0,0,1,.987,0l2.987,7.767a.528.528,0,0,1-.3.683l-7.981,3.089A.529.529,0,0,1,3406.786,3131.715Z" fill="#fff"/>
        <path id="Trazado_3" data-name="Trazado 3" d="M3419.533,3152.246a.528.528,0,0,1-.449.878l-8.277-.863a.529.529,0,0,1-.471-.58l.87-8.513a.529.529,0,0,1,.952-.261l1.415,1.917s3.146-.633,4.021-4.892a26.543,26.543,0,0,0,.171-6.4.528.528,0,0,1,.955-.348,15.792,15.792,0,0,1,3.262,9.22,10.817,10.817,0,0,1-4.038,8.053Z" fill="#fff"/>
      </g>
    </g>
  </g>
</svg>
