<svg xmlns="http://www.w3.org/2000/svg" xmlns:xlink="http://www.w3.org/1999/xlink" width="110.102" height="110.103" viewBox="0 0 110.102 110.103">
  <defs>
    <clipPath id="clip-path">
      <rect id="Rectángulo_62" data-name="Rectángulo 62" width="43.2" height="58.19" transform="translate(0 0)" fill="#fff"/>
    </clipPath>
  </defs>
  <g id="Grupo_370" data-name="Grupo 370" transform="translate(-1277.424 -4520.724)">
    <path id="Trazado_156" data-name="Trazado 156" d="M1332.475,4630.827a55.052,55.052,0,1,1,55.051-55.052A55.113,55.113,0,0,1,1332.475,4630.827Zm0-105.071a50.02,50.02,0,1,0,50.02,50.019A50.077,50.077,0,0,0,1332.475,4525.756Z" fill="#fff"/>
    <path id="Trazado_158" data-name="Trazado 158" d="M1330.445,4594.983a13.226,13.226,0,0,1,.042-1.5c.708-5.325,2-8.654,2.675-12.194.162-.852.821-5.422-.942-1.217-1.5,3.58-2.172,5.334-4.309,9.623-.293.588-.808,1.531-1.059,2.133a4.094,4.094,0,0,1-.676.86c-.321-.245-.78-.429-.941-.744a15.163,15.163,0,0,1,.357-15.247c2.336-4.106,6.252-6.455,10.745-8.11a1.362,1.362,0,0,1,1.134.478c.551.843.951,1.77,1.538,2.912a15.332,15.332,0,0,1,.856,14.808,16.477,16.477,0,0,1-7.734,7.867A6.3,6.3,0,0,1,1330.445,4594.983Z" fill="#095966"/>
    <g id="Grupo_93" data-name="Grupo 93" transform="translate(1310.764 4547)">
      <g id="Grupo_91" data-name="Grupo 91" clip-path="url(#clip-path)">
        <path id="Trazado_162" data-name="Trazado 162" d="M40.862,0H35.708a3.038,3.038,0,0,0-2.259,2.169,3.936,3.936,0,0,0-.07.846q-.006,5.822,0,11.641c0,1.229-.525,1.708-1.862,1.71H29.126a.992.992,0,0,1-1.07-.756c-.1-.366-.193-.734-.313-1.1a2.633,2.633,0,0,0-2.557-1.78q-3.588-.021-7.174,0a2.635,2.635,0,0,0-2.573,1.835c-.111.345-.2.694-.3,1.041a1,1,0,0,1-1.071.756H11.616c-1.253,0-1.8-.5-1.8-1.653,0-3.748-.049-7.5.021-11.244A3.138,3.138,0,0,0,7.484,0H2.33A3.041,3.041,0,0,0,.07,2.171,3.73,3.73,0,0,0,0,2.96V54.78c0,2.077,1.439,3.409,3.682,3.41H39.51c2.242,0,3.683-1.333,3.683-3.41q0-25.909.007-51.82A2.962,2.962,0,0,0,40.862,0M28.614,40.109a16.478,16.478,0,0,1-7.734,7.867,6.294,6.294,0,0,1-1.686.331,13.406,13.406,0,0,1,.042-1.5c.708-5.325,2-8.654,2.675-12.194.162-.852.821-5.422-.942-1.217-1.5,3.58-2.172,5.334-4.309,9.623-.293.588-.808,1.531-1.059,2.133a4.1,4.1,0,0,1-.676.86c-.321-.245-.78-.429-.941-.744a15.165,15.165,0,0,1,.357-15.247c2.336-4.106,6.252-6.455,10.745-8.11a1.358,1.358,0,0,1,1.134.478c.551.843.951,1.77,1.538,2.912a15.332,15.332,0,0,1,.856,14.808" fill="#fff"/>
      </g>
    </g>
  </g>
</svg>
