<svg xmlns="http://www.w3.org/2000/svg" width="110.103" height="110.103" viewBox="0 0 110.103 110.103">
  <g id="Grupo_317" data-name="Grupo 317" transform="translate(-3342.407 -4553.202)">
    <path id="Trazado_417" data-name="Trazado 417" d="M3397.458,4663.305a55.052,55.052,0,1,1,55.052-55.052A55.115,55.115,0,0,1,3397.458,4663.305Zm0-105.071a50.019,50.019,0,1,0,50.02,50.019A50.076,50.076,0,0,0,3397.458,4558.234Z" fill="#297a81"/>
    <g id="Grupo_287" data-name="Grupo 287">
      <path id="Trazado_418" data-name="Trazado 418" d="M3432.85,4627.141h-2.53a.467.467,0,0,1-.466-.445q-1.031-22.047-2.057-44.023a4.106,4.106,0,0,0-4.1-3.914h-6.817a4.107,4.107,0,0,0-4.1,3.97q-.73,22-1.461,43.958a.466.466,0,0,1-.466.45h-2.605l-.071,6h24.677a.465.465,0,0,0,.466-.466v-5.067A.466.466,0,0,0,3432.85,4627.141Z" fill="#095966"/>
      <path id="Trazado_419" data-name="Trazado 419" d="M3406.737,4626.655c.269-8.167.537-16.293.807-24.5a.468.468,0,0,0-.466-.482h-5.958a.466.466,0,0,1-.466-.466v-9.726a.467.467,0,0,0-.713-.4c-5.506,3.408-10.917,6.756-16.438,10.172a.467.467,0,0,1-.714-.4v-9.4a.465.465,0,0,0-.7-.4q-8.668,5.121-17.343,10.235a1.146,1.146,0,0,0-.662,1.143q.03,11.928.013,23.856v.429a.465.465,0,0,1-.466.466h-1.563a.466.466,0,0,0-.466.466v5.018a.465.465,0,0,0,.466.466h44.586l.138-6.256A.463.463,0,0,1,3406.737,4626.655Zm-29.053-6.412a.727.727,0,0,1-.728.727h-7.726a.727.727,0,0,1-.727-.727v-7.659a.727.727,0,0,1,.727-.727h7.726a.727.727,0,0,1,.728.727Zm11.81,0a.727.727,0,0,1-.727.727h-7.726a.727.727,0,0,1-.728-.727v-7.659a.727.727,0,0,1,.728-.727h7.726a.727.727,0,0,1,.727.727Zm11.981,0a.727.727,0,0,1-.727.727h-7.726a.727.727,0,0,1-.727-.727v-7.659a.727.727,0,0,1,.727-.727h7.726a.727.727,0,0,1,.727.727Z" fill="#388b8e"/>
    </g>
  </g>
</svg>
