<svg xmlns="http://www.w3.org/2000/svg" width="110.102" height="110.103" viewBox="0 0 110.102 110.103">
  <g id="Grupo_315" data-name="Grupo 315" transform="translate(-3720.407 -4553.202)">
    <path id="Trazado_410" data-name="Trazado 410" d="M3775.458,4663.305a55.052,55.052,0,1,1,55.051-55.052A55.115,55.115,0,0,1,3775.458,4663.305Zm0-105.071a50.019,50.019,0,1,0,50.02,50.019A50.076,50.076,0,0,0,3775.458,4558.234Z" fill="#297a81"/>
    <path id="Trazado_411" data-name="Trazado 411" d="M3771.581,4636.2c-4.14.223-11.508-.116-17.705-4.3a20.721,20.721,0,0,1-8.652-14.43l-4.2.589a.986.986,0,0,1-.913-1.6l9.774-12.026a.985.985,0,0,1,1.384-.144l12.389,10.025a.985.985,0,0,1-.563,1.749l-4.429.255s-2.217,5.549,3.534,11.252c2.592,2.57,6.948,5.2,9.806,6.782A.983.983,0,0,1,3771.581,4636.2Z" fill="#489b9b"/>
    <path id="Trazado_412" data-name="Trazado 412" d="M3775.658,4597.114l1.984-4.35s-3.71-4.3-11.518-2.156c-3.521.968-7.967,3.439-10.766,5.128a.983.983,0,0,1-1.384-1.29c1.869-3.7,5.83-9.919,12.541-13.208a21.8,21.8,0,0,1,16.983-.586l1.421-3.671a.985.985,0,0,1,1.838,0l5.563,14.464a.985.985,0,0,1-.564,1.272l-14.862,5.753A.985.985,0,0,1,3775.658,4597.114Z" fill="#297a81"/>
    <path id="Trazado_413" data-name="Trazado 413" d="M3799.4,4635.349a.984.984,0,0,1-.836,1.636l-15.414-1.609a.984.984,0,0,1-.877-1.079l1.62-15.855a.985.985,0,0,1,1.772-.484l2.636,3.569s5.858-1.179,7.489-9.111c.735-3.576.553-8.66.318-11.92a.983.983,0,0,1,1.778-.648c2.451,3.347,6.191,9.7,6.076,17.17a20.148,20.148,0,0,1-7.521,15Z" fill="#095966"/>
  </g>
</svg>
