<svg xmlns="http://www.w3.org/2000/svg" width="33.895" height="33.896" viewBox="0 0 33.895 33.896">
  <g id="Grupo_65" data-name="Grupo 65" transform="translate(-555.677 -6294.277)">
    <circle id="Elipse_4" data-name="Elipse 4" cx="16.948" cy="16.948" r="16.948" transform="translate(555.677 6294.277)" fill="#489b9b"/>
    <g id="Grupo_64" data-name="Grupo 64">
      <path id="Trazado_138" data-name="Trazado 138" d="M578.132,6320.992a5.84,5.84,0,0,0,3.6-1.655,1.494,1.494,0,0,0,.353-.488,5.844,5.844,0,0,0,.454-1.9.655.655,0,0,0-.347-.666c-.279-.163-.563-.318-.842-.481q-1.444-.844-2.886-1.694a.85.85,0,0,0-1.259.119c-.3.29-.566.621-.846.935-.3.332-.583.671-.889.994a.651.651,0,0,1-.84.145c-.448-.241-.9-.483-1.333-.743a12.651,12.651,0,0,1-3.944-3.512c-.6-.848-1.114-1.761-1.652-2.653a.683.683,0,0,1,.165-.919c.327-.3.669-.586,1-.883s.651-.56.944-.871a.783.783,0,0,0,.111-1.118c-.04-.071-.084-.138-.126-.208-.4-.68-.814-1.359-1.212-2.043-.289-.5-.563-1-.841-1.5a.68.68,0,0,0-.783-.392c-.575.12-1.153.239-1.717.4a1.367,1.367,0,0,0-.58.381A5.88,5.88,0,0,0,563,6306.02a5.343,5.343,0,0,0,.292,1.909,17.273,17.273,0,0,0,2.847,5.774,26.806,26.806,0,0,0,4.152,4.142,13.008,13.008,0,0,0,3.422,2c.657.25,1.315.5,1.978.73A6.75,6.75,0,0,0,578.132,6320.992Z" fill="#fff"/>
      <path id="Trazado_139" data-name="Trazado 139" d="M578.132,6320.992a6.75,6.75,0,0,1-2.437-.414c-.663-.232-1.321-.48-1.978-.73a13.008,13.008,0,0,1-3.422-2,26.806,26.806,0,0,1-4.152-4.142,17.273,17.273,0,0,1-2.847-5.774,5.343,5.343,0,0,1-.292-1.909,5.88,5.88,0,0,1,1.663-3.782,1.367,1.367,0,0,1,.58-.381c.564-.164,1.142-.283,1.717-.4a.68.68,0,0,1,.783.392c.278.5.552,1.006.841,1.5.4.684.807,1.363,1.212,2.043.042.07.086.137.126.208a.783.783,0,0,1-.111,1.118c-.293.311-.625.585-.944.871s-.673.582-1,.883a.683.683,0,0,0-.165.919c.538.892,1.05,1.8,1.652,2.653a12.651,12.651,0,0,0,3.944,3.512c.438.26.885.5,1.333.743a.651.651,0,0,0,.84-.145c.306-.323.593-.662.889-.994.28-.314.543-.645.846-.935a.85.85,0,0,1,1.259-.119q1.44.852,2.886,1.694c.279.163.563.318.842.481a.655.655,0,0,1,.347.666,5.844,5.844,0,0,1-.454,1.9,1.494,1.494,0,0,1-.353.488A5.84,5.84,0,0,1,578.132,6320.992Z" fill="#fff"/>
    </g>
  </g>
</svg>
