<svg xmlns="http://www.w3.org/2000/svg" width="34.8" height="34.8" viewBox="0 0 34.8 34.8">
  <g id="Grupo_72" data-name="Grupo 72" transform="translate(-1536.158 -6383.538)">
    <path id="Trazado_143" data-name="Trazado 143" d="M1553.558,6418.338h0a17.4,17.4,0,0,1-17.4-17.4h0a17.4,17.4,0,0,1,17.4-17.4h0a17.4,17.4,0,0,1,17.4,17.4h0A17.4,17.4,0,0,1,1553.558,6418.338Z" fill="#489b9b"/>
    <g id="Grupo_71" data-name="Grupo 71">
      <path id="Trazado_144" data-name="Trazado 144" d="M1553.558,6393.116c2.547,0,2.849.01,3.855.056a5.268,5.268,0,0,1,1.772.329,3.151,3.151,0,0,1,1.81,1.81,5.288,5.288,0,0,1,.329,1.772c.046,1.006.055,1.308.055,3.855s-.009,2.849-.055,3.855a5.288,5.288,0,0,1-.329,1.772,3.151,3.151,0,0,1-1.81,1.81,5.293,5.293,0,0,1-1.772.329c-1.006.046-1.307.055-3.855.055s-2.849-.009-3.855-.055a5.286,5.286,0,0,1-1.772-.329,3.151,3.151,0,0,1-1.81-1.81,5.288,5.288,0,0,1-.329-1.772c-.046-1.006-.055-1.307-.055-3.855s.009-2.849.055-3.855a5.288,5.288,0,0,1,.329-1.772,3.151,3.151,0,0,1,1.81-1.81,5.26,5.26,0,0,1,1.772-.329c1.006-.046,1.308-.056,3.855-.056m0-1.719c-2.591,0-2.916.012-3.934.058a7.011,7.011,0,0,0-2.315.443,4.885,4.885,0,0,0-2.791,2.791,7.014,7.014,0,0,0-.443,2.315c-.047,1.018-.057,1.343-.057,3.934s.01,2.916.057,3.934a7.014,7.014,0,0,0,.443,2.315,4.885,4.885,0,0,0,2.791,2.791,7.011,7.011,0,0,0,2.315.443c1.018.046,1.343.057,3.934.057s2.916-.011,3.933-.057a7.018,7.018,0,0,0,2.316-.443,4.885,4.885,0,0,0,2.791-2.791,7.014,7.014,0,0,0,.443-2.315c.046-1.018.057-1.343.057-3.934s-.011-2.916-.057-3.934a7.014,7.014,0,0,0-.443-2.315,4.885,4.885,0,0,0-2.791-2.791,7.018,7.018,0,0,0-2.316-.443c-1.017-.046-1.342-.058-3.933-.058" fill="#fff"/>
      <path id="Trazado_145" data-name="Trazado 145" d="M1553.558,6396.039a4.9,4.9,0,1,0,4.9,4.9,4.9,4.9,0,0,0-4.9-4.9m0,8.079a3.18,3.18,0,1,1,3.18-3.18,3.18,3.18,0,0,1-3.18,3.18" fill="#fff"/>
      <path id="Trazado_146" data-name="Trazado 146" d="M1559.8,6395.845a1.145,1.145,0,1,1-1.145-1.145,1.146,1.146,0,0,1,1.145,1.145" fill="#fff"/>
    </g>
  </g>
</svg>
