<svg xmlns="http://www.w3.org/2000/svg" width="33.895" height="33.896" viewBox="0 0 33.895 33.896">
  <g id="Grupo_62" data-name="Grupo 62" transform="translate(-555.677 -6456.91)">
    <circle id="Elipse_3" data-name="Elipse 3" cx="16.948" cy="16.948" r="16.948" transform="translate(555.677 6456.91)" fill="#489b9b"/>
    <path id="Trazado_134" data-name="Trazado 134" d="M576.479,6474.072l5.64,4.852a.2.2,0,0,0,.336-.154v-9.705a.2.2,0,0,0-.336-.155l-5.64,4.854A.2.2,0,0,0,576.479,6474.072Z" fill="#fff"/>
    <path id="Trazado_135" data-name="Trazado 135" d="M580.522,6467.366h-15.8a.2.2,0,0,0-.133.358l7.9,6.8a.2.2,0,0,0,.265,0l7.9-6.8A.2.2,0,0,0,580.522,6467.366Z" fill="#fff"/>
    <path id="Trazado_136" data-name="Trazado 136" d="M572.489,6476.967l-1.994-1.714a.2.2,0,0,0-.266,0l-5.962,5.133a.2.2,0,0,0,.133.358h16.443a.2.2,0,0,0,.133-.358l-5.963-5.133a.2.2,0,0,0-.265,0l-1.994,1.714A.2.2,0,0,1,572.489,6476.967Z" fill="#fff"/>
    <path id="Trazado_137" data-name="Trazado 137" d="M568.766,6473.763l-5.635-4.85a.2.2,0,0,0-.336.154v9.7a.2.2,0,0,0,.336.154l5.635-4.85A.2.2,0,0,0,568.766,6473.763Z" fill="#fff"/>
  </g>
</svg>
