<svg xmlns="http://www.w3.org/2000/svg" width="34.461" height="34.461" viewBox="0 0 34.461 34.461">
  <g id="Grupo_209" data-name="Grupo 209" transform="translate(-4621.898 -297.93)">
    <path id="Trazado_264" data-name="Trazado 264" d="M4639.128,332.391h0a17.23,17.23,0,0,1-17.23-17.23h0a17.231,17.231,0,0,1,17.23-17.231h0a17.231,17.231,0,0,1,17.231,17.231h0A17.231,17.231,0,0,1,4639.128,332.391Z" fill="#388c8a"/>
    <g id="Grupo_208" data-name="Grupo 208">
      <path id="Trazado_265" data-name="Trazado 265" d="M4639.128,307.415c2.523,0,2.822.01,3.818.056a5.239,5.239,0,0,1,1.754.325,3.133,3.133,0,0,1,1.793,1.793,5.235,5.235,0,0,1,.326,1.754c.045,1,.055,1.3.055,3.818s-.01,2.821-.055,3.817a5.23,5.23,0,0,1-.326,1.754,3.126,3.126,0,0,1-1.793,1.793,5.206,5.206,0,0,1-1.754.326c-1,.045-1.295.055-3.818.055s-2.821-.01-3.817-.055a5.205,5.205,0,0,1-1.754-.326,3.118,3.118,0,0,1-1.793-1.793,5.213,5.213,0,0,1-.326-1.754c-.045-1-.055-1.295-.055-3.817s.01-2.822.055-3.818a5.219,5.219,0,0,1,.326-1.754,3.126,3.126,0,0,1,1.793-1.793,5.238,5.238,0,0,1,1.754-.325c1-.046,1.295-.056,3.817-.056m0-1.7c-2.565,0-2.887.011-3.9.057a6.955,6.955,0,0,0-2.293.439,4.838,4.838,0,0,0-2.763,2.763,6.967,6.967,0,0,0-.439,2.294c-.046,1.007-.057,1.329-.057,3.9s.011,2.887.057,3.895a6.966,6.966,0,0,0,.439,2.293,4.838,4.838,0,0,0,2.763,2.763,6.954,6.954,0,0,0,2.293.439c1.008.046,1.33.057,3.9.057s2.888-.011,3.9-.057a6.954,6.954,0,0,0,2.293-.439,4.834,4.834,0,0,0,2.763-2.763,6.953,6.953,0,0,0,.439-2.293c.046-1.008.057-1.33.057-3.895s-.011-2.888-.057-3.9a6.955,6.955,0,0,0-.439-2.294,4.834,4.834,0,0,0-2.763-2.763,6.955,6.955,0,0,0-2.293-.439c-1.008-.046-1.33-.057-3.9-.057" fill="#fff"/>
      <path id="Trazado_266" data-name="Trazado 266" d="M4639.128,310.309a4.852,4.852,0,1,0,4.852,4.852,4.852,4.852,0,0,0-4.852-4.852m0,8a3.149,3.149,0,1,1,3.149-3.149,3.149,3.149,0,0,1-3.149,3.149" fill="#fff"/>
      <path id="Trazado_267" data-name="Trazado 267" d="M4645.305,310.118a1.134,1.134,0,1,1-1.133-1.134,1.133,1.133,0,0,1,1.133,1.134" fill="#fff"/>
    </g>
  </g>
</svg>
