<svg xmlns="http://www.w3.org/2000/svg" width="395.931" height="62.301" viewBox="0 0 395.931 62.301">
  <g id="Grupo_148" data-name="Grupo 148" transform="translate(-74.636 -93.06)">
    <g id="Grupo_147" data-name="Grupo 147">
      <path id="Trazado_218" data-name="Trazado 218" d="M151.938,155.22v-8.309h2.988a2.85,2.85,0,0,1,1.893.6,2.009,2.009,0,0,1,.721,1.624,1.975,1.975,0,0,1-1.1,1.8,2.06,2.06,0,0,1,1.055.679,1.9,1.9,0,0,1,.457,1.29,2.064,2.064,0,0,1-.768,1.676,3.078,3.078,0,0,1-2.021.632Zm1.535-4.84h1.36a1.083,1.083,0,0,0,.826-.316,1.1,1.1,0,0,0,.3-.786.949.949,0,0,0-.317-.726,1.193,1.193,0,0,0-.843-.293h-1.325Zm0,3.481h1.652a1.232,1.232,0,0,0,.874-.322,1.068,1.068,0,0,0,.345-.815.99.99,0,0,0-.374-.785,1.407,1.407,0,0,0-.938-.317h-1.559Z" fill="#fff"/>
      <path id="Trazado_219" data-name="Trazado 219" d="M164.455,146.759a4.225,4.225,0,1,1-3.088,1.236A4.176,4.176,0,0,1,164.455,146.759Zm1.945,2.285a2.744,2.744,0,0,0-3.891,0,2.981,2.981,0,0,0,0,4.032,2.732,2.732,0,0,0,3.879,0,3,3,0,0,0,.012-4.032Z" fill="#fff"/>
      <path id="Trazado_220" data-name="Trazado 220" d="M171.463,155.22v-8.309h1.547v6.926h3.434v1.383Z" fill="#fff"/>
      <path id="Trazado_221" data-name="Trazado 221" d="M181.32,146.759a4.083,4.083,0,0,1,2.133.551v1.535a3.5,3.5,0,0,0-2.075-.668,1.782,1.782,0,0,0-.973.24.757.757,0,0,0-.374.674.773.773,0,0,0,.328.639,5.289,5.289,0,0,0,1.125.58c.312.125.554.226.727.305a6.3,6.3,0,0,1,.632.345,2.37,2.37,0,0,1,.575.463,2.33,2.33,0,0,1,.351.6,2.063,2.063,0,0,1,.153.808,2.259,2.259,0,0,1-.833,1.829,3.315,3.315,0,0,1-2.191.691,4.145,4.145,0,0,1-2.473-.7v-1.641a3.546,3.546,0,0,0,2.379.938,1.832,1.832,0,0,0,1.061-.287.9.9,0,0,0,.416-.779.823.823,0,0,0-.369-.692,6.667,6.667,0,0,0-1.284-.645c-.328-.132-.592-.252-.791-.357a4.979,4.979,0,0,1-.668-.44,1.77,1.77,0,0,1-.551-.679,2.32,2.32,0,0,1,.61-2.643A3.152,3.152,0,0,1,181.32,146.759Z" fill="#fff"/>
      <path id="Trazado_222" data-name="Trazado 222" d="M185.539,155.22l3.211-8.321H190.3l3.211,8.321h-1.582l-.773-2.039h-3.259l-.773,2.039Zm2.8-3.4H190.7l-1.171-3.2Z" fill="#fff"/>
      <path id="Trazado_223" data-name="Trazado 223" d="M198.231,146.759a4.089,4.089,0,0,1,2.134.551v1.535a3.5,3.5,0,0,0-2.075-.668,1.78,1.78,0,0,0-.973.24.758.758,0,0,0-.375.674.774.774,0,0,0,.329.639,5.264,5.264,0,0,0,1.125.58c.312.125.554.226.726.305a6.193,6.193,0,0,1,.633.345,2.362,2.362,0,0,1,.574.463,2.3,2.3,0,0,1,.352.6,2.081,2.081,0,0,1,.152.808,2.258,2.258,0,0,1-.832,1.829,3.317,3.317,0,0,1-2.191.691,4.145,4.145,0,0,1-2.473-.7v-1.641a3.542,3.542,0,0,0,2.379.938,1.826,1.826,0,0,0,1.06-.287.9.9,0,0,0,.416-.779.823.823,0,0,0-.369-.692,6.652,6.652,0,0,0-1.283-.645c-.328-.132-.592-.252-.791-.357a4.981,4.981,0,0,1-.668-.44,1.77,1.77,0,0,1-.551-.679,2.316,2.316,0,0,1,.609-2.643A3.156,3.156,0,0,1,198.231,146.759Z" fill="#fff"/>
      <path id="Trazado_224" data-name="Trazado 224" d="M207.49,155.22v-8.309h2.977a4.114,4.114,0,0,1,3.036,1.2,4.261,4.261,0,0,1,0,5.918,4.113,4.113,0,0,1-3.036,1.2Zm1.535-1.359h1.313a2.685,2.685,0,0,0,1.969-.791,2.8,2.8,0,0,0-1.969-4.8h-1.313Z" fill="#fff"/>
      <path id="Trazado_225" data-name="Trazado 225" d="M217.4,155.22v-8.309h5.286v1.359h-3.75v2.087h3.082V151.7h-3.082v2.157h3.891v1.359Z" fill="#fff"/>
      <path id="Trazado_226" data-name="Trazado 226" d="M231.047,152.361v2.859h-1.535v-8.309h3.059a2.7,2.7,0,0,1,1.963.785,2.587,2.587,0,0,1,.8,1.922,2.634,2.634,0,0,1-.8,1.952,2.694,2.694,0,0,1-1.963.791Zm0-1.336h1.3a1.391,1.391,0,0,0,1.395-1.407,1.27,1.27,0,0,0-.41-.961,1.39,1.39,0,0,0-.985-.387h-1.3Z" fill="#fff"/>
      <path id="Trazado_227" data-name="Trazado 227" d="M241.63,146.759a4.223,4.223,0,1,1-3.088,1.236A4.179,4.179,0,0,1,241.63,146.759Zm1.946,2.285a2.744,2.744,0,0,0-3.891,0,2.978,2.978,0,0,0,0,4.032,2.732,2.732,0,0,0,3.879,0,3,3,0,0,0,.012-4.032Z" fill="#fff"/>
      <path id="Trazado_228" data-name="Trazado 228" d="M248.627,155.22v-8.309h1.547v6.926h3.434v1.383Z" fill="#fff"/>
      <path id="Trazado_229" data-name="Trazado 229" d="M255.964,155.22V146.9h1.547v8.321Z" fill="#fff"/>
      <path id="Trazado_230" data-name="Trazado 230" d="M260.7,155.22v-8.309h5.285v1.359h-3.75v2.087h3.082V151.7h-3.082v2.157h3.891v1.359Z" fill="#fff"/>
      <path id="Trazado_231" data-name="Trazado 231" d="M270.379,155.22v-6.926h-2.391v-1.383h6.329v1.383h-2.391v6.926Z" fill="#fff"/>
      <path id="Trazado_232" data-name="Trazado 232" d="M276.673,155.22V146.9h1.547v8.321Z" fill="#fff"/>
      <path id="Trazado_233" data-name="Trazado 233" d="M281.419,155.22v-8.309h1.547v6.926H286.4v1.383Z" fill="#fff"/>
      <path id="Trazado_234" data-name="Trazado 234" d="M288.756,155.22v-8.309h5.286v1.359h-3.751v2.087h3.083V151.7h-3.083v2.157h3.891v1.359Z" fill="#fff"/>
      <path id="Trazado_235" data-name="Trazado 235" d="M302.339,146.9h1.536v8.321h-1.313l-4.137-5.625v5.625h-1.547V146.9H298.2l4.137,5.626Z" fill="#fff"/>
      <path id="Trazado_236" data-name="Trazado 236" d="M310.895,146.759a4.225,4.225,0,1,1-3.088,1.236A4.18,4.18,0,0,1,310.895,146.759Zm1.946,2.285a2.745,2.745,0,0,0-3.892,0,2.981,2.981,0,0,0,0,4.032,2.733,2.733,0,0,0,3.88,0,3,3,0,0,0,.012-4.032Z" fill="#fff"/>
      <path id="Trazado_237" data-name="Trazado 237" d="M325.7,146.759a4.223,4.223,0,1,1-3.088,1.236A4.177,4.177,0,0,1,325.7,146.759Zm1.946,2.285a2.744,2.744,0,0,0-3.891,0,2.981,2.981,0,0,0,0,4.032,2.732,2.732,0,0,0,3.879,0,3,3,0,0,0,.012-4.032Z" fill="#fff"/>
      <path id="Trazado_238" data-name="Trazado 238" d="M331.464,155.22,334.089,151l-2.531-4.1h1.757l1.77,2.93,1.77-2.93h1.758l-2.532,4.1,2.626,4.219h-1.735l-1.887-3.058-1.9,3.058Z" fill="#fff"/>
      <path id="Trazado_239" data-name="Trazado 239" d="M341.015,155.22V146.9h1.547v8.321Z" fill="#fff"/>
      <path id="Trazado_240" data-name="Trazado 240" d="M349.477,152.666h-4.008v-1.278h4.008Z" fill="#fff"/>
      <path id="Trazado_241" data-name="Trazado 241" d="M352.395,155.22v-8.309h2.989a2.854,2.854,0,0,1,1.893.6,2.012,2.012,0,0,1,.721,1.624,1.975,1.975,0,0,1-1.1,1.8,2.06,2.06,0,0,1,1.055.679,1.906,1.906,0,0,1,.457,1.29,2.064,2.064,0,0,1-.768,1.676,3.083,3.083,0,0,1-2.022.632Zm1.536-4.84h1.359a1.08,1.08,0,0,0,.826-.316,1.1,1.1,0,0,0,.3-.786.948.948,0,0,0-.316-.726,1.2,1.2,0,0,0-.844-.293h-1.324Zm0,3.481h1.652a1.228,1.228,0,0,0,.873-.322,1.066,1.066,0,0,0,.346-.815.988.988,0,0,0-.375-.785,1.405,1.405,0,0,0-.938-.317h-1.558Z" fill="#fff"/>
      <path id="Trazado_242" data-name="Trazado 242" d="M361.1,155.22V146.9h1.547v8.321Z" fill="#fff"/>
      <path id="Trazado_243" data-name="Trazado 243" d="M369.647,146.759a4.223,4.223,0,1,1-3.088,1.236A4.179,4.179,0,0,1,369.647,146.759Zm1.946,2.285a2.744,2.744,0,0,0-3.891,0,2.978,2.978,0,0,0,0,4.032,2.732,2.732,0,0,0,3.879,0,3,3,0,0,0,.012-4.032Z" fill="#fff"/>
      <path id="Trazado_244" data-name="Trazado 244" d="M376.656,155.22v-8.309h2.976a4.114,4.114,0,0,1,3.036,1.2,4.258,4.258,0,0,1,0,5.918,4.113,4.113,0,0,1-3.036,1.2Zm1.535-1.359H379.5a2.8,2.8,0,1,0,0-5.591h-1.313Z" fill="#fff"/>
      <path id="Trazado_245" data-name="Trazado 245" d="M386.57,155.22v-8.309h5.286v1.359h-3.75v2.087h3.082V151.7h-3.082v2.157H392v1.359Z" fill="#fff"/>
      <path id="Trazado_246" data-name="Trazado 246" d="M401.4,150.661v3.9a5.529,5.529,0,0,1-3.048.8,4.3,4.3,0,0,1-3.176-1.213,4.186,4.186,0,0,1-1.219-3.1,4,4,0,0,1,1.307-3.094,4.513,4.513,0,0,1,3.159-1.195,5.6,5.6,0,0,1,2.718.668v1.594a4.868,4.868,0,0,0-2.672-.786,2.924,2.924,0,0,0-2.086.8,2.741,2.741,0,0,0-.844,2.086,2.693,2.693,0,0,0,.774,2.028,2.853,2.853,0,0,0,2.074.75,5.186,5.186,0,0,0,1.582-.258V151.95H398.01v-1.289Z" fill="#fff"/>
      <path id="Trazado_247" data-name="Trazado 247" d="M404.268,155.22v-8.309h3.141a2.966,2.966,0,0,1,2.08.721,2.412,2.412,0,0,1,.791,1.869,2.357,2.357,0,0,1-.492,1.459,2.433,2.433,0,0,1-1.3.885l2.285,3.375h-1.781l-2.051-3.094h-1.125v3.094Zm1.547-4.418h1.5a1.369,1.369,0,0,0,1-.352,1.228,1.228,0,0,0,.364-.925,1.215,1.215,0,0,0-.364-.921,1.387,1.387,0,0,0-1-.345h-1.5Z" fill="#fff"/>
      <path id="Trazado_248" data-name="Trazado 248" d="M412.226,155.22l3.211-8.321h1.547l3.211,8.321h-1.582l-.773-2.039h-3.259l-.773,2.039Zm2.8-3.4h2.355l-1.172-3.2Z" fill="#fff"/>
      <path id="Trazado_249" data-name="Trazado 249" d="M422.387,155.22v-8.309h2.977a4.113,4.113,0,0,1,3.035,1.2,4.258,4.258,0,0,1,0,5.918,4.112,4.112,0,0,1-3.035,1.2Zm1.535-1.359h1.313a2.8,2.8,0,1,0,0-5.591h-1.313Z" fill="#fff"/>
      <path id="Trazado_250" data-name="Trazado 250" d="M431.118,155.22l3.211-8.321h1.548l3.211,8.321h-1.582l-.774-2.039h-3.258l-.774,2.039Zm2.8-3.4h2.356l-1.172-3.2Z" fill="#fff"/>
      <path id="Trazado_251" data-name="Trazado 251" d="M441.279,155.22v-8.309h2.989a2.852,2.852,0,0,1,1.893.6,2.009,2.009,0,0,1,.721,1.624,1.975,1.975,0,0,1-1.1,1.8,2.06,2.06,0,0,1,1.055.679,1.9,1.9,0,0,1,.457,1.29,2.064,2.064,0,0,1-.768,1.676,3.081,3.081,0,0,1-2.022.632Zm1.536-4.84h1.36a1.083,1.083,0,0,0,.826-.316,1.1,1.1,0,0,0,.3-.786.949.949,0,0,0-.317-.726,1.194,1.194,0,0,0-.844-.293h-1.324Zm0,3.481h1.652a1.228,1.228,0,0,0,.873-.322,1.066,1.066,0,0,0,.346-.815.988.988,0,0,0-.375-.785,1.4,1.4,0,0,0-.937-.317h-1.559Z" fill="#fff"/>
      <path id="Trazado_252" data-name="Trazado 252" d="M449.987,155.22v-8.309h1.547v6.926h3.435v1.383Z" fill="#fff"/>
      <path id="Trazado_253" data-name="Trazado 253" d="M457.324,155.22v-8.309h5.286v1.359h-3.751v2.087h3.083V151.7h-3.083v2.157h3.891v1.359Z" fill="#fff"/>
      <path id="Trazado_254" data-name="Trazado 254" d="M467.966,146.759a4.088,4.088,0,0,1,2.133.551v1.535a3.5,3.5,0,0,0-2.075-.668,1.774,1.774,0,0,0-.972.24.757.757,0,0,0-.376.674.774.774,0,0,0,.329.639,5.263,5.263,0,0,0,1.125.58c.312.125.554.226.726.305a6.191,6.191,0,0,1,.633.345,2.343,2.343,0,0,1,.574.463,2.275,2.275,0,0,1,.352.6,2.063,2.063,0,0,1,.152.808,2.261,2.261,0,0,1-.831,1.829,3.321,3.321,0,0,1-2.192.691,4.145,4.145,0,0,1-2.473-.7v-1.641a3.546,3.546,0,0,0,2.379.938,1.832,1.832,0,0,0,1.061-.287.9.9,0,0,0,.416-.779.821.821,0,0,0-.37-.692,6.62,6.62,0,0,0-1.283-.645c-.328-.132-.592-.252-.791-.357a4.98,4.98,0,0,1-.668-.44,1.77,1.77,0,0,1-.551-.679,2.321,2.321,0,0,1,.609-2.643A3.157,3.157,0,0,1,467.966,146.759Z" fill="#fff"/>
    </g>
    <path id="Trazado_255" data-name="Trazado 255" d="M152.445,95.092a1.3,1.3,0,0,1,1.3-1.3h13.84a21.83,21.83,0,0,1,8.386,1.576,20.387,20.387,0,0,1,6.586,4.278,19.011,19.011,0,0,1,4.277,6.36,20.338,20.338,0,0,1,1.52,7.879,20.546,20.546,0,0,1-1.52,7.909,18.939,18.939,0,0,1-4.277,6.388,20.387,20.387,0,0,1-6.586,4.278,21.811,21.811,0,0,1-8.386,1.576h-13.84a1.3,1.3,0,0,1-1.3-1.3Zm14.24,29.938a11.406,11.406,0,0,0,4.278-.788,10.1,10.1,0,0,0,3.433-2.251,10.617,10.617,0,0,0,2.308-3.518,11.962,11.962,0,0,0,.844-4.588,11.808,11.808,0,0,0-.844-4.53,10.628,10.628,0,0,0-2.308-3.518,10.148,10.148,0,0,0-3.433-2.252,11.445,11.445,0,0,0-4.278-.787h-2.527a1.3,1.3,0,0,0-1.3,1.3V123.73a1.3,1.3,0,0,0,1.3,1.3Z" fill="#fff"/>
    <path id="Trazado_256" data-name="Trazado 256" d="M204.569,93.736h8.285a1.3,1.3,0,0,1,1.215.837l14.374,37.7a1.3,1.3,0,0,1-1.215,1.764h-7.841a1.3,1.3,0,0,1-1.222-.854l-2.358-6.453a1.3,1.3,0,0,0-1.222-.854H202.839a1.3,1.3,0,0,0-1.221.854l-2.359,6.453a1.3,1.3,0,0,1-1.222.854h-7.894a1.3,1.3,0,0,1-1.215-1.765l14.427-37.7a1.3,1.3,0,0,1,1.214-.835m7.52,21.749-2.175-6.343a1.3,1.3,0,0,0-2.46,0l-2.175,6.343a1.3,1.3,0,0,0,1.23,1.722h4.35a1.3,1.3,0,0,0,1.23-1.722" fill="#fff"/>
    <path id="Trazado_257" data-name="Trazado 257" d="M234.981,93.792H242.9a1.3,1.3,0,0,1,1.3,1.3v28.357a1.3,1.3,0,0,0,1.3,1.3h12.2a1.3,1.3,0,0,1,1.3,1.3v6.687a1.3,1.3,0,0,1-1.3,1.3H234.981a1.3,1.3,0,0,1-1.3-1.3V95.092a1.3,1.3,0,0,1,1.3-1.3" fill="#fff"/>
    <path id="Trazado_258" data-name="Trazado 258" d="M266.377,93.792h23.966a1.3,1.3,0,0,1,1.3,1.3v6.4a1.3,1.3,0,0,1-1.3,1.3H276.79a1.3,1.3,0,0,0-1.3,1.3v3.985a1.3,1.3,0,0,0,1.3,1.3h10.457a1.3,1.3,0,0,1,1.3,1.3v6.18a1.3,1.3,0,0,1-1.3,1.3H276.79a1.3,1.3,0,0,0-1.3,1.3v4.266a1.3,1.3,0,0,0,1.3,1.3h14.453a1.3,1.3,0,0,1,1.3,1.3v6.4a1.3,1.3,0,0,1-1.3,1.3H266.377a1.3,1.3,0,0,1-1.3-1.3V95.092a1.3,1.3,0,0,1,1.3-1.3" fill="#fff"/>
    <path id="Trazado_259" data-name="Trazado 259" d="M308.207,134.036h-7.812a1.3,1.3,0,0,1-1.3-1.3V95.092a1.3,1.3,0,0,1,1.3-1.3h14.516a15.548,15.548,0,0,1,5.741,1.041,13.443,13.443,0,0,1,4.559,2.927,13.766,13.766,0,0,1,3.011,4.475,14.265,14.265,0,0,1,1.1,5.628,14.409,14.409,0,0,1-1.1,5.685,13.745,13.745,0,0,1-3.011,4.475,13.413,13.413,0,0,1-4.559,2.927,15.548,15.548,0,0,1-5.741,1.041h-4.1a1.3,1.3,0,0,0-1.3,1.3v9.444a1.3,1.3,0,0,1-1.3,1.3m5.3-21.051a4.8,4.8,0,0,0,3.574-1.463,5.019,5.019,0,0,0,1.435-3.659,4.923,4.923,0,0,0-1.435-3.63A4.852,4.852,0,0,0,313.5,102.8h-2.7a1.3,1.3,0,0,0-1.3,1.3v7.587a1.3,1.3,0,0,0,1.3,1.3Z" fill="#fff"/>
    <path id="Trazado_260" data-name="Trazado 260" d="M335.725,93.792h7.924a1.3,1.3,0,0,1,1.3,1.3v28.357a1.3,1.3,0,0,0,1.3,1.3h12.2a1.3,1.3,0,0,1,1.3,1.3v6.687a1.3,1.3,0,0,1-1.3,1.3H335.725a1.3,1.3,0,0,1-1.3-1.3V95.092a1.3,1.3,0,0,1,1.3-1.3" fill="#fff"/>
    <path id="Trazado_261" data-name="Trazado 261" d="M379.8,93.736h8.285a1.3,1.3,0,0,1,1.215.837l14.374,37.7a1.3,1.3,0,0,1-1.215,1.764H394.62a1.3,1.3,0,0,1-1.222-.854l-2.358-6.453a1.3,1.3,0,0,0-1.222-.854H378.072a1.3,1.3,0,0,0-1.221.854l-2.359,6.453a1.3,1.3,0,0,1-1.222.854h-7.894a1.3,1.3,0,0,1-1.215-1.765l14.427-37.7a1.3,1.3,0,0,1,1.214-.835m7.52,21.749-2.175-6.343a1.3,1.3,0,0,0-2.46,0l-2.175,6.343a1.3,1.3,0,0,0,1.23,1.722h4.351a1.3,1.3,0,0,0,1.229-1.722" fill="#fff"/>
    <path id="Trazado_262" data-name="Trazado 262" d="M422.005,93.06a23.334,23.334,0,0,1,5.938.732,19.207,19.207,0,0,1,4.232,1.631,1.308,1.308,0,0,1,.693,1.152V103.4a1.312,1.312,0,0,1-1.924,1.167,17.088,17.088,0,0,0-2.888-1.232,18.309,18.309,0,0,0-5.714-.928,7.781,7.781,0,0,0-3.658.7,2.226,2.226,0,0,0-1.295,2.055,2.409,2.409,0,0,0,1.379,2.11,27.015,27.015,0,0,0,4.081,1.829q2.082.733,4.306,1.661a16.817,16.817,0,0,1,4.024,2.364,12.038,12.038,0,0,1,2.983,3.518,10.241,10.241,0,0,1,1.182,5.122,12.9,12.9,0,0,1-1.041,5.206,11.177,11.177,0,0,1-3.067,4.109,14.577,14.577,0,0,1-4.926,2.673,21.057,21.057,0,0,1-6.613.957,25.71,25.71,0,0,1-7.148-.957,18.778,18.778,0,0,1-4.909-2.122,1.308,1.308,0,0,1-.607-1.1v-7.213a1.3,1.3,0,0,1,2.04-1.068,20.439,20.439,0,0,0,3.251,1.769,16.139,16.139,0,0,0,6.529,1.351,7.67,7.67,0,0,0,4.109-.9,2.756,2.756,0,0,0,1.407-2.42,2.891,2.891,0,0,0-1.858-2.589,46.44,46.44,0,0,0-4.671-2.026q-1.689-.676-3.631-1.548a15.642,15.642,0,0,1-3.6-2.251,11.333,11.333,0,0,1-2.73-3.35,9.9,9.9,0,0,1-1.069-4.784,11.8,11.8,0,0,1,1.013-4.9,11.351,11.351,0,0,1,2.955-3.94,14.017,14.017,0,0,1,4.784-2.646,20.174,20.174,0,0,1,6.445-.957" fill="#fff"/>
    <path id="Trazado_263" data-name="Trazado 263" d="M448.025,103.079h-8.15a1.3,1.3,0,0,1-1.3-1.3V95.092a1.3,1.3,0,0,1,1.3-1.3h29.369a1.3,1.3,0,0,1,1.3,1.3v6.687a1.3,1.3,0,0,1-1.3,1.3h-8.093a1.3,1.3,0,0,0-1.3,1.3v28.355a1.3,1.3,0,0,1-1.3,1.3h-7.924a1.3,1.3,0,0,1-1.3-1.3V104.38a1.3,1.3,0,0,0-1.3-1.3" fill="#fff"/>
    <path id="Trazado_264" data-name="Trazado 264" d="M135.427,96.059a1.875,1.875,0,0,0,.495-1.5,1.474,1.474,0,0,0-1.43-1.114H84.741a1.412,1.412,0,0,0-.9.328c-6.707,5.6-9.126,17.954-9.193,24.993-.133,6.789,1.7,13.508,2.824,19.882,1.007,5.7,1.078,11.438.691,13.487-.051.271-.106.585-.159.9a1.7,1.7,0,0,0,1.676,1.979h50.088a1.414,1.414,0,0,0,1.37-1.067c1.691-6.7.084-11.726-1.617-17.045a40.668,40.668,0,0,1-2.265-16.226C128.206,106.716,132.142,100.863,135.427,96.059Zm-38.768,5.362h14.562a1.954,1.954,0,1,1,0,3.908H96.659a1.954,1.954,0,0,1,0-3.908Zm4.845,43.6a14.8,14.8,0,0,1-8.908-2.164,10.424,10.424,0,0,1-4.353-7.26l-2.115.3a.5.5,0,0,1-.459-.8l4.917-6.051a.5.5,0,0,1,.7-.073l6.233,5.044a.5.5,0,0,1-.283.88L95,135.023s-1.116,2.792,1.777,5.662a24.926,24.926,0,0,0,4.934,3.412A.5.5,0,0,1,101.5,145.025Zm2.051-19.663,1-2.189s-1.866-2.165-5.795-1.085a24.874,24.874,0,0,0-5.416,2.58.5.5,0,0,1-.7-.649,14.8,14.8,0,0,1,6.31-6.645,10.967,10.967,0,0,1,8.544-.295l.716-1.847a.5.5,0,0,1,.924,0l2.8,7.278a.5.5,0,0,1-.283.64l-7.478,2.894A.5.5,0,0,1,103.555,125.362ZM115.5,144.6a.5.5,0,0,1-.421.823l-7.755-.81a.5.5,0,0,1-.442-.543l.815-7.977a.5.5,0,0,1,.892-.244l1.326,1.8s2.947-.593,3.768-4.584a24.887,24.887,0,0,0,.16-6,.5.5,0,0,1,.895-.326,14.8,14.8,0,0,1,3.057,8.639,10.136,10.136,0,0,1-3.784,7.545Z" fill="#fff"/>
  </g>
</svg>
