<svg xmlns="http://www.w3.org/2000/svg" width="84.29" height="56.443" viewBox="0 0 84.29 56.443">
  <g id="Grupo_250" data-name="Grupo 250" transform="translate(-4126.163 -3461.283)">
    <path id="Trazado_338" data-name="Trazado 338" d="M4210.452,3503.67a5.188,5.188,0,0,1-2.839,3.8,7.8,7.8,0,0,1-2.69.6c-2.109.086-4.224.038-6.336.019-.476,0-.716.08-.827.626a11.2,11.2,0,0,1-21.932.2c-.054-.24-.108-.48-.172-.768h-19.084c-.25.818-.452,1.666-.764,2.471a11.194,11.194,0,0,1-21.4-1.881c-.1-.523-.307-.659-.806-.649-1.4.03-2.8.02-4.2.008a2.987,2.987,0,0,1-3.239-3.228q-.009-20.208,0-40.416a2.811,2.811,0,0,1,3.106-3.113q23.171-.036,46.341-.061c2.3,0,3.411,1.138,3.416,3.449,0,1.615,0,3.231,0,4.931.348.017.64.042.932.043,2.057,0,4.12-.082,6.172.026a8.5,8.5,0,0,1,7.494,4.836c1.176,2.26,2.33,4.535,3.371,6.859a5.972,5.972,0,0,0,4.19,3.491c1.325.348,2.656.67,3.982,1.013a6.48,6.48,0,0,1,5.123,5.92,5.621,5.621,0,0,0,.156.625Zm-31.377-18.741h14.768c-1.189-2.409-2.353-4.73-3.481-7.069a6.814,6.814,0,0,0-2.978-3.072c-2.66-1.458-5.519-.593-8.309-.874Zm-29.661-5.488a3.539,3.539,0,0,0-2.51-6.095c-2.267.16-4.512.622-6.819.963l2.578,12.963,2.877-.6-.959-4.954c.672-.142,1.256-.274,1.844-.387,1.485-.285,2.129.161,2.476,1.636a11.977,11.977,0,0,0,.652,2.107,1.134,1.134,0,0,0,.83.614,22.922,22.922,0,0,0,2.541-.477,15.845,15.845,0,0,1-1.034-2.451C4151.54,3481.294,4151.122,3479.946,4149.414,3479.441Zm21.888-3.561-.482-2.3-5.156.995-.519-2.721,5.994-1.2-.463-2.308-8.906,1.769,2.56,12.855,8.925-1.775-.474-2.3-6.022,1.165-.614-3.137Zm-14.617,6.186-.609-3.151,5.144-1.039-.465-2.295-5.155.992-.529-2.713,6-1.215-.458-2.3-8.907,1.766,2.555,12.857,8.923-1.771-.467-2.308Zm-17.711-7.437-8.986,1.79,2.553,12.855,2.883-.59-1.007-5.149,5.207-1.067-.475-2.287-5.215,1-.571-3.017c1.076-.22,2.04-.419,3.005-.613.987-.2,1.975-.4,3.046-.609Zm51.939,31.987a4.142,4.142,0,1,0-4.212,4.046A4.148,4.148,0,0,0,4190.913,3506.616Zm-49.666-.081a4.146,4.146,0,0,0,8.292.007,4.146,4.146,0,1,0-8.292-.007Z" fill="#095966"/>
    <path id="Trazado_339" data-name="Trazado 339" d="M4144.119,3479.417l-.663-3.29c.927-.145,1.8-.351,2.685-.4a1.5,1.5,0,0,1,1.5,1.446,1.342,1.342,0,0,1-1.024,1.631C4145.844,3479.048,4145.038,3479.2,4144.119,3479.417Z" fill="#095966"/>
  </g>
</svg>
