<svg xmlns="http://www.w3.org/2000/svg" width="104.883" height="104.883" viewBox="0 0 104.883 104.883">
  <g id="Grupo_74" data-name="Grupo 74" transform="translate(-1557.146 -1097.117)">
    <rect id="Rectángulo_44" data-name="Rectángulo 44" width="104.883" height="104.883" rx="52.441" transform="translate(1557.146 1097.117)" fill="#095966"/>
    <g id="Grupo_73" data-name="Grupo 73">
      <path id="Trazado_110" data-name="Trazado 110" d="M1638.338,1148.1a28.248,28.248,0,0,0-56.444-.515c-.013.409-.026.819-.026,1.229a27.819,27.819,0,0,0,4.046,14.478l-5.091,15.033,15.641-4.972a28.278,28.278,0,0,0,41.887-24.539C1638.351,1148.58,1638.351,1148.342,1638.338,1148.1Zm-28.229,24.275a23.648,23.648,0,0,1-13.063-3.9l-9.122,2.91,2.961-8.754a23.321,23.321,0,0,1-4.522-13.816,21.944,21.944,0,0,1,.119-2.287,23.755,23.755,0,0,1,47.294.449c.054.609.08,1.216.08,1.838A23.681,23.681,0,0,1,1610.109,1172.379Z" fill="#fff" fill-rule="evenodd"/>
      <path id="Trazado_111" data-name="Trazado 111" d="M1623.054,1154.477c-.7-.344-4.1-2.01-4.734-2.235s-1.1-.344-1.56.344-1.8,2.235-2.2,2.684-.806.516-1.507.172a18.715,18.715,0,0,1-5.566-3.412,20.508,20.508,0,0,1-3.848-4.746c-.4-.688-.039-1.058.3-1.4.317-.317.688-.807,1.044-1.2.094-.12.172-.225.252-.331a7.942,7.942,0,0,0,.436-.82,1.239,1.239,0,0,0-.052-1.2c-.172-.344-1.561-3.729-2.143-5.1s-1.15-1.137-1.56-1.137-.859-.066-1.322-.066a2.562,2.562,0,0,0-1.851.859,7.7,7.7,0,0,0-2.42,5.739,8.713,8.713,0,0,0,.358,2.34,15.581,15.581,0,0,0,2.472,4.76c.343.45,4.786,7.615,11.82,10.379,7.047,2.737,7.047,1.825,8.317,1.706s4.1-1.653,4.667-3.266a5.685,5.685,0,0,0,.41-3.266C1624.2,1154.992,1623.741,1154.821,1623.054,1154.477Z" fill="#fff" fill-rule="evenodd"/>
    </g>
  </g>
</svg>
