<svg xmlns="http://www.w3.org/2000/svg" width="121.781" height="116" viewBox="0 0 121.781 116">
  <g id="Grupo_80" data-name="Grupo 80" transform="translate(-1306.771 -1951.161)">
    <path id="Trazado_117" data-name="Trazado 117" d="M1306.771,2018.228c.068-.7.178-1.4.2-2.1.3-9.546.578-19.092.9-28.636a5.592,5.592,0,0,1,4.851-5.583,5.2,5.2,0,0,1,5.823,3.5,16.292,16.292,0,0,1,1.255,5.507c.126,7.606.155,15.219-.039,22.822a10.089,10.089,0,0,0,3.219,8.052c4.438,4.3,8.763,8.723,13.134,13.095.084.084.165.172.254.25.7.6,1.389,1.315,2.376.539a2.664,2.664,0,0,0,.419-3.255,8.132,8.132,0,0,0-.74-.77q-6.682-6.686-13.366-13.368c-1.625-1.626-2.056-3.056-1.339-4.417a4.644,4.644,0,0,1,4.891-2.174,6.409,6.409,0,0,1,3.084,1.6,119.936,119.936,0,0,0,13.272,12.237,11.493,11.493,0,0,1,4.363,9.111c.1,8.32.058,16.643.071,24.965,0,2.49,0,4.981,0,7.548h-21.444v-1.29c0-5.389.025-10.779-.034-16.168a2.91,2.91,0,0,0-.764-1.828c-4.867-4.94-9.736-9.881-14.71-14.713-2.693-2.616-5.042-5.363-5.676-9.21Z" fill="#fff"/>
    <path id="Trazado_118" data-name="Trazado 118" d="M1400.348,1983.933a32.691,32.691,0,1,1-32.438-32.771A32.738,32.738,0,0,1,1400.348,1983.933Zm-11.369-6.267a6.2,6.2,0,0,0-.83-.3c-4.407-.494-8.812-1.009-13.225-1.445a1.566,1.566,0,0,1-1.484-1.066c-1.734-3.905-3.512-7.79-5.28-11.68-.134-.3-.31-.573-.535-.984-.272.564-.469.948-.647,1.341-1.714,3.784-3.408,7.577-5.164,11.341a1.811,1.811,0,0,1-1.118.965c-2.982.4-5.978.69-8.969,1.024-1.66.185-3.317.388-5.174.606.489.486.783.8,1.1,1.091,2.69,2.46,5.3,5.02,8.112,7.329a3.6,3.6,0,0,1,1.356,4.239c-.988,3.984-1.7,8.036-2.56,12.213.49-.257.839-.428,1.176-.62,3.648-2.072,7.31-4.121,10.928-6.244a1.733,1.733,0,0,1,2.03.022c3.624,2.113,7.282,4.169,10.93,6.242.32.182.655.339,1.133.584-.96-4.634-1.865-9.089-2.818-13.533a1.774,1.774,0,0,1,.61-1.957c3.112-2.762,6.165-5.588,9.25-8.38A11.183,11.183,0,0,1,1388.979,1977.666Z" fill="#fff"/>
    <path id="Trazado_119" data-name="Trazado 119" d="M1407.358,2067.161h-21.316a2.516,2.516,0,0,1-.11-.526c0-10.622-.033-21.245.045-31.867a11.625,11.625,0,0,1,4.45-9.315,111.6,111.6,0,0,0,13.162-12.182,5.053,5.053,0,0,1,6.2-1.1c2.4,1.273,2.83,3.614.966,5.591-1.3,1.384-2.681,2.7-4.026,4.045-3.391,3.392-6.807,6.76-10.147,10.2a2.753,2.753,0,0,0-.739,1.966,2.607,2.607,0,0,0,1.162,1.851c.446.2,1.444-.257,1.909-.714,4.748-4.669,9.436-9.4,14.143-14.109a8.308,8.308,0,0,0,2.478-6.315c-.1-7.966-.162-15.935-.007-23.9a14.445,14.445,0,0,1,1.531-5.9,5.331,5.331,0,0,1,9.3-.682,5.9,5.9,0,0,1,1.041,3.06c.283,5.9.437,11.8.626,17.7.173,5.427.294,10.856.515,16.281a13.109,13.109,0,0,1-4.139,10.349c-5.451,5.368-10.822,10.816-16.254,16.2a2.5,2.5,0,0,0-.805,1.971c.033,5.351.017,10.7.017,16.053Z" fill="#fff"/>
  </g>
</svg>
