<svg xmlns="http://www.w3.org/2000/svg" width="114.643" height="100" viewBox="0 0 114.643 100">
  <g id="Grupo_82" data-name="Grupo 82" transform="translate(-1311.293 -2912.494)">
    <path id="Trazado_124" data-name="Trazado 124" d="M1311.293,2972.328c.175-.717.333-1.438.529-2.149a14.974,14.974,0,0,1,14-11.066,74.737,74.737,0,0,1,9.793.5,10.765,10.765,0,0,1,5.669,2.87c-.27.308-.5.586-.744.848a31.868,31.868,0,0,0-8.43,18.133,114.984,114.984,0,0,0-.492,16.976c.034,2.158.005,4.317.005,6.612-.49.049-.991.141-1.492.142-3.952.006-7.905.02-11.857-.018-3.5-.034-5.68-1.687-6.791-5.05a1.067,1.067,0,0,0-.189-.259Z" fill="#fff"/>
    <path id="Trazado_125" data-name="Trazado 125" d="M1367.258,3012.349c-6.677,0-13.355.03-20.032-.026a11.171,11.171,0,0,1-3.828-.594,7.2,7.2,0,0,1-4.968-6.916c-.128-6.374-.231-12.76.006-19.128.38-10.217,4.879-18.128,13.909-23.236a27.589,27.589,0,0,1,11.936-3.412,47.343,47.343,0,0,1,14.463.773c10.277,2.519,19.1,12.572,19.8,23.1.49,7.391.229,14.834.212,22.254a8.626,8.626,0,0,1-.85,2.977,5.283,5.283,0,0,1-4.509,3.562c-3.777.368-7.572.633-11.365.725-4.921.121-9.848.03-14.772.03Z" fill="#fff"/>
    <path id="Trazado_126" data-name="Trazado 126" d="M1368.588,2912.494a19.469,19.469,0,1,1-19.457,19.5A19.432,19.432,0,0,1,1368.588,2912.494Z" fill="#fff"/>
    <path id="Trazado_127" data-name="Trazado 127" d="M1405.554,3005v-1.231c0-5.743.107-11.488-.021-17.228-.167-7.5-1.9-14.545-6.644-20.584-.917-1.168-1.907-2.278-2.918-3.48a12.877,12.877,0,0,1,7.876-3.29c3.563-.219,7.165-.526,10.688.359a15.03,15.03,0,0,1,11.383,14.56q.045,12.029,0,24.057a6.6,6.6,0,0,1-6.333,6.929c-4.391.205-8.8.075-13.2.079A4.49,4.49,0,0,1,1405.554,3005Z" fill="#fff"/>
    <path id="Trazado_128" data-name="Trazado 128" d="M1329.234,2926.823a12.3,12.3,0,1,1-12.342,12.257A12.279,12.279,0,0,1,1329.234,2926.823Z" fill="#fff"/>
    <path id="Trazado_129" data-name="Trazado 129" d="M1408,2926.823a12.3,12.3,0,1,1-12.293,12.3A12.281,12.281,0,0,1,1408,2926.823Z" fill="#fff"/>
  </g>
</svg>
