<svg xmlns="http://www.w3.org/2000/svg" width="33.895" height="33.896" viewBox="0 0 33.895 33.896">
  <g id="Grupo_265" data-name="Grupo 265" transform="translate(-3371.136 -6408.864)">
    <rect id="Rectángulo_183" data-name="Rectángulo 183" width="33.895" height="33.895" rx="16.948" transform="translate(3371.136 6408.864)" fill="#095966"/>
    <g id="Grupo_264" data-name="Grupo 264">
      <path id="Trazado_398" data-name="Trazado 398" d="M3398.444,6425.287a10.179,10.179,0,0,0-20.34-.185c0,.147-.009.295-.009.443a10.028,10.028,0,0,0,1.457,5.217l-1.834,5.417,5.636-1.791a10.191,10.191,0,0,0,15.095-8.843C3398.449,6425.459,3398.449,6425.373,3398.444,6425.287Zm-10.172,8.748a8.516,8.516,0,0,1-4.708-1.406l-3.287,1.049,1.067-3.154a8.41,8.41,0,0,1-1.63-4.979,8.04,8.04,0,0,1,.043-.825,8.561,8.561,0,0,1,17.043.162c.019.22.029.439.029.663A8.533,8.533,0,0,1,3388.272,6434.035Z" fill="#fff" fill-rule="evenodd"/>
      <path id="Trazado_399" data-name="Trazado 399" d="M3392.936,6427.584c-.252-.124-1.477-.725-1.706-.805s-.4-.124-.562.124-.648.805-.791.967-.29.185-.543.062a6.764,6.764,0,0,1-2.006-1.23,7.4,7.4,0,0,1-1.386-1.71c-.143-.248-.014-.381.109-.505s.248-.291.377-.434l.09-.119a2.787,2.787,0,0,0,.157-.295.45.45,0,0,0-.018-.434c-.062-.124-.563-1.343-.773-1.839s-.414-.41-.562-.41-.309-.024-.476-.024a.921.921,0,0,0-.667.31,2.771,2.771,0,0,0-.872,2.068,3.1,3.1,0,0,0,.129.843,5.6,5.6,0,0,0,.891,1.716,10.238,10.238,0,0,0,4.259,3.74c2.54.986,2.54.657,3,.614a2.489,2.489,0,0,0,1.682-1.176,2.046,2.046,0,0,0,.148-1.177C3393.351,6427.77,3393.184,6427.708,3392.936,6427.584Z" fill="#fff" fill-rule="evenodd"/>
    </g>
  </g>
</svg>
