<svg xmlns="http://www.w3.org/2000/svg" width="110.103" height="110.103" viewBox="0 0 110.103 110.103">
  <g id="Grupo_316" data-name="Grupo 316" transform="translate(-4092.882 -4553.202)">
    <path id="Trazado_414" data-name="Trazado 414" d="M4147.933,4663.305a55.052,55.052,0,1,1,55.052-55.052A55.114,55.114,0,0,1,4147.933,4663.305Zm0-105.071a50.019,50.019,0,1,0,50.02,50.019A50.076,50.076,0,0,0,4147.933,4558.234Z" fill="#297a81"/>
    <path id="Trazado_415" data-name="Trazado 415" d="M4167.571,4579.157h-5.154a3.039,3.039,0,0,0-2.259,2.17,3.975,3.975,0,0,0-.07.845q-.006,5.822,0,11.642c0,1.228-.525,1.707-1.862,1.709h-2.391a.991.991,0,0,1-1.07-.756c-.1-.365-.193-.735-.313-1.1a2.633,2.633,0,0,0-2.557-1.781q-3.587-.02-7.174,0a2.635,2.635,0,0,0-2.573,1.835c-.11.344-.2.694-.3,1.041a.994.994,0,0,1-1.071.756c-.817,0-1.635,0-2.452,0-1.253,0-1.8-.5-1.8-1.652,0-3.748-.05-7.5.021-11.244a3.141,3.141,0,0,0-2.354-3.47h-5.154a3.041,3.041,0,0,0-2.259,2.172,3.609,3.609,0,0,0-.069.789q0,25.909,0,51.82c0,2.077,1.439,3.409,3.682,3.409q17.914,0,35.828,0c2.242,0,3.682-1.333,3.682-3.409q0-25.911.007-51.82A2.963,2.963,0,0,0,4167.571,4579.157Z" fill="#095966"/>
    <path id="Trazado_416" data-name="Trazado 416" d="M4145.9,4627.461a13.33,13.33,0,0,1,.042-1.5c.708-5.324,2-8.654,2.675-12.194.163-.851.821-5.422-.941-1.216-1.5,3.579-2.173,5.334-4.31,9.622-.293.588-.808,1.532-1.059,2.133a4.068,4.068,0,0,1-.676.861c-.32-.245-.78-.429-.941-.744a15.166,15.166,0,0,1,.357-15.248c2.336-4.1,6.253-6.455,10.745-8.11a1.361,1.361,0,0,1,1.134.479c.551.842.952,1.77,1.538,2.911a15.332,15.332,0,0,1,.856,14.808,16.47,16.47,0,0,1-7.734,7.867A6.254,6.254,0,0,1,4145.9,4627.461Z" fill="#489b9b"/>
  </g>
</svg>
