<svg xmlns="http://www.w3.org/2000/svg" width="53.024" height="53.023" viewBox="0 0 53.024 53.023">
  <g id="Grupo_74" data-name="Grupo 74" transform="translate(-2806.927 -14606.121)">
    <g id="Grupo_73" data-name="Grupo 73">
      <rect id="Rectángulo_30" data-name="Rectángulo 30" width="35.314" height="32.454" transform="translate(2815.956 14616.812)" fill="#fff"/>
      <g id="Grupo_72" data-name="Grupo 72">
        <g id="Grupo_71" data-name="Grupo 71">
          <path id="Trazado_182" data-name="Trazado 182" d="M2833.421,14659.145a26.512,26.512,0,1,1,26.53-26.482A26.532,26.532,0,0,1,2833.421,14659.145Zm1.641-28.916-.042-.024v-.114c0-.642,0-1.284,0-1.926,0-.282-.1-.383-.385-.4-.039,0-.077,0-.115,0h-5.205a1.6,1.6,0,0,0-.206.006.325.325,0,0,0-.33.317,1.558,1.558,0,0,0-.015.274c.008.933.026,1.864.026,2.8q0,5.9-.015,11.806c0,.97-.013,1.941-.019,2.911a1.606,1.606,0,0,0,.009.252.325.325,0,0,0,.329.319,1.809,1.809,0,0,0,.206,0l1.49,0c1.261,0,2.522,0,3.784,0,.352,0,.447-.095.447-.425q0-4.963,0-9.927a6.829,6.829,0,0,1,.039-.73,3.408,3.408,0,0,1,1.3-2.388,3,3,0,0,1,4.865,1.563,6.759,6.759,0,0,1,.232,1.9q0,4.7,0,9.4c0,.514.092.606.595.606h5.091c.068,0,.138,0,.206,0a.36.36,0,0,0,.374-.38c.006-.076,0-.153,0-.23q0-4.734,0-9.468a19.579,19.579,0,0,0-.132-2.491,9.229,9.229,0,0,0-.7-2.646,6.175,6.175,0,0,0-3.689-3.454,8.2,8.2,0,0,0-3.655-.393,5.794,5.794,0,0,0-2.372.785,6.389,6.389,0,0,0-1.9,1.771C2835.211,14630.041,2835.135,14630.134,2835.062,14630.229Zm-15.9,6.855q0,4.39,0,8.78c0,.516.074.588.6.588h5.09c.482,0,.578-.094.578-.573V14628.3a1.824,1.824,0,0,0,0-.183.329.329,0,0,0-.33-.343,2.138,2.138,0,0,0-.274-.008h-5.136c-.061,0-.123,0-.184,0a.324.324,0,0,0-.339.354c0,.084,0,.168,0,.252Zm-.363-15.021c0,.113,0,.229,0,.343a.544.544,0,0,0,.008.091,3.126,3.126,0,0,0,1.978,2.531,4.015,4.015,0,0,0,2.406.191,3.206,3.206,0,0,0,.837-6.045,4.04,4.04,0,0,0-2.684-.255A3.09,3.09,0,0,0,2818.8,14622.063Z" fill="#489b9b"/>
        </g>
      </g>
    </g>
  </g>
</svg>
