<svg xmlns="http://www.w3.org/2000/svg" width="33.895" height="33.896" viewBox="0 0 33.895 33.896">
  <g id="Grupo_67" data-name="Grupo 67" transform="translate(-555.677 -6376.386)">
    <rect id="Rectángulo_54" data-name="Rectángulo 54" width="33.895" height="33.895" rx="16.948" transform="translate(555.677 6376.386)" fill="#489b9b"/>
    <g id="Grupo_66" data-name="Grupo 66">
      <path id="Trazado_140" data-name="Trazado 140" d="M582.986,6392.81a10.179,10.179,0,0,0-20.34-.186c-.005.148-.01.295-.01.443a10.025,10.025,0,0,0,1.458,5.217l-1.834,5.418,5.636-1.792a10.191,10.191,0,0,0,15.1-8.843C582.991,6392.981,582.991,6392.9,582.986,6392.81Zm-10.173,8.748a8.52,8.52,0,0,1-4.707-1.406l-3.288,1.048,1.068-3.154a8.4,8.4,0,0,1-1.63-4.979,8.039,8.039,0,0,1,.043-.824,8.561,8.561,0,0,1,17.043.162c.019.219.029.438.029.662A8.534,8.534,0,0,1,572.813,6401.558Z" fill="#fff" fill-rule="evenodd"/>
      <path id="Trazado_141" data-name="Trazado 141" d="M577.478,6395.106c-.252-.123-1.477-.724-1.706-.805s-.395-.124-.562.124-.648.805-.791.967-.291.186-.543.062a6.739,6.739,0,0,1-2.006-1.229,7.426,7.426,0,0,1-1.387-1.711c-.142-.248-.014-.381.11-.505s.248-.29.376-.433c.034-.043.062-.081.091-.119a2.861,2.861,0,0,0,.157-.3.445.445,0,0,0-.019-.433c-.062-.124-.562-1.344-.772-1.84s-.414-.409-.562-.409-.31-.024-.476-.024a.923.923,0,0,0-.667.309,2.773,2.773,0,0,0-.872,2.068,3.157,3.157,0,0,0,.128.844,5.635,5.635,0,0,0,.891,1.715,10.247,10.247,0,0,0,4.26,3.74c2.539.987,2.539.658,3,.615a2.491,2.491,0,0,0,1.682-1.177,2.051,2.051,0,0,0,.147-1.177C577.892,6395.292,577.725,6395.23,577.478,6395.106Z" fill="#fff" fill-rule="evenodd"/>
    </g>
  </g>
</svg>
