<svg xmlns="http://www.w3.org/2000/svg" width="44.167" height="44.169" viewBox="0 0 44.167 44.169">
  <g id="Grupo_80" data-name="Grupo 80" transform="translate(-2629.547 -14799.919)">
    <path id="Trazado_184" data-name="Trazado 184" d="M2629.547,14821.955a22.084,22.084,0,1,1,21.9,22.133A22.082,22.082,0,0,1,2629.547,14821.955Zm22.1,14.643c.08-.182.143-.308.192-.438a30.063,30.063,0,0,1,3.575-6.934c1.324-1.859,2.821-3.6,4.277-5.363a9.542,9.542,0,0,0,2.15-7.572,10.309,10.309,0,1,0-17.69,8.255,34.58,34.58,0,0,1,5.966,8.622C2650.64,14834.277,2651.118,14835.408,2651.647,14836.6Z" fill="#489b9b"/>
    <path id="Trazado_185" data-name="Trazado 185" d="M2651.647,14836.6c-.529-1.189-1.007-2.32-1.53-3.431a34.58,34.58,0,0,0-5.966-8.622,10.265,10.265,0,1,1,17.69-8.255,9.542,9.542,0,0,1-2.15,7.572c-1.456,1.764-2.953,3.5-4.277,5.363a30.063,30.063,0,0,0-3.575,6.934C2651.79,14836.29,2651.727,14836.416,2651.647,14836.6Zm-4.544-18.987a4.527,4.527,0,1,0,4.513-4.562A4.524,4.524,0,0,0,2647.1,14817.61Z" fill="#fff"/>
    <path id="Trazado_186" data-name="Trazado 186" d="M2647.1,14817.61a4.527,4.527,0,1,1,4.512,4.507A4.51,4.51,0,0,1,2647.1,14817.61Z" fill="#489b9b"/>
  </g>
</svg>
