<svg xmlns="http://www.w3.org/2000/svg" width="228.888" height="36.016" viewBox="0 0 228.888 36.016">
  <g id="Grupo_61" data-name="Grupo 61" transform="translate(-120.731 -6351.428)">
    <g id="Grupo_60" data-name="Grupo 60">
      <path id="Trazado_87" data-name="Trazado 87" d="M165.419,6387.362v-4.8h1.728a1.645,1.645,0,0,1,1.094.349,1.158,1.158,0,0,1,.416.938,1.125,1.125,0,0,1-.183.64,1.106,1.106,0,0,1-.454.4,1.191,1.191,0,0,1,.61.393,1.1,1.1,0,0,1,.264.746,1.193,1.193,0,0,1-.443.969,1.784,1.784,0,0,1-1.169.365Zm.887-2.8h.786a.624.624,0,0,0,.478-.183.636.636,0,0,0,.173-.454.55.55,0,0,0-.183-.42.691.691,0,0,0-.488-.169h-.766Zm0,2.012h.956a.71.71,0,0,0,.5-.186.614.614,0,0,0,.2-.471.573.573,0,0,0-.216-.454.814.814,0,0,0-.543-.183h-.9Z" fill="#fff"/>
      <path id="Trazado_88" data-name="Trazado 88" d="M172.655,6382.471a2.441,2.441,0,1,1-1.785.714A2.413,2.413,0,0,1,172.655,6382.471Zm1.124,1.321a1.586,1.586,0,0,0-2.249,0,1.722,1.722,0,0,0,0,2.33,1.578,1.578,0,0,0,2.243,0,1.73,1.73,0,0,0,.006-2.33Z" fill="#fff"/>
      <path id="Trazado_89" data-name="Trazado 89" d="M176.706,6387.362v-4.8h.9v4h1.985v.8Z" fill="#fff"/>
      <path id="Trazado_90" data-name="Trazado 90" d="M182.4,6382.471a2.369,2.369,0,0,1,1.233.318v.888a2.02,2.02,0,0,0-1.2-.387,1.03,1.03,0,0,0-.562.139.438.438,0,0,0-.217.39.449.449,0,0,0,.19.369,3.023,3.023,0,0,0,.65.335c.181.073.321.132.421.177a3.366,3.366,0,0,1,.365.2,1.349,1.349,0,0,1,.332.267,1.33,1.33,0,0,1,.2.346,1.209,1.209,0,0,1,.088.467,1.308,1.308,0,0,1-.481,1.057,1.915,1.915,0,0,1-1.267.4,2.393,2.393,0,0,1-1.43-.407v-.948a2.053,2.053,0,0,0,1.376.542,1.057,1.057,0,0,0,.613-.166.521.521,0,0,0,.24-.451.476.476,0,0,0-.213-.4,3.89,3.89,0,0,0-.742-.373,4.958,4.958,0,0,1-.457-.207,2.822,2.822,0,0,1-.387-.254,1.016,1.016,0,0,1-.318-.393,1.34,1.34,0,0,1,.352-1.528A1.824,1.824,0,0,1,182.4,6382.471Z" fill="#fff"/>
      <path id="Trazado_91" data-name="Trazado 91" d="M184.844,6387.362l1.856-4.81h.894l1.857,4.81h-.915l-.447-1.178h-1.884l-.447,1.178Zm1.619-1.964h1.362l-.678-1.85Z" fill="#fff"/>
      <path id="Trazado_92" data-name="Trazado 92" d="M192.181,6382.471a2.367,2.367,0,0,1,1.233.318v.888a2.017,2.017,0,0,0-1.2-.387,1.028,1.028,0,0,0-.562.139.438.438,0,0,0-.217.39.446.446,0,0,0,.19.369,3.022,3.022,0,0,0,.65.335c.181.073.321.132.42.177a3.365,3.365,0,0,1,.366.2,1.368,1.368,0,0,1,.332.267,1.3,1.3,0,0,1,.2.346,1.19,1.19,0,0,1,.088.467,1.305,1.305,0,0,1-.481,1.057,1.913,1.913,0,0,1-1.267.4,2.39,2.39,0,0,1-1.429-.407v-.948a2.05,2.05,0,0,0,1.375.542,1.052,1.052,0,0,0,.613-.166.52.52,0,0,0,.241-.451.474.474,0,0,0-.214-.4,3.828,3.828,0,0,0-.742-.373c-.189-.077-.342-.146-.457-.207a2.817,2.817,0,0,1-.386-.254,1.028,1.028,0,0,1-.319-.393,1.344,1.344,0,0,1,.353-1.528A1.823,1.823,0,0,1,192.181,6382.471Z" fill="#fff"/>
      <path id="Trazado_93" data-name="Trazado 93" d="M197.534,6387.362v-4.8h1.721a2.374,2.374,0,0,1,1.754.691,2.46,2.46,0,0,1,0,3.421,2.374,2.374,0,0,1-1.754.691Zm.887-.786h.759a1.616,1.616,0,1,0,0-3.231h-.759Z" fill="#fff"/>
      <path id="Trazado_94" data-name="Trazado 94" d="M203.266,6387.362v-4.8h3.055v.786h-2.168v1.206h1.782v.779h-1.782v1.246h2.25v.786Z" fill="#fff"/>
      <path id="Trazado_95" data-name="Trazado 95" d="M211.152,6385.709v1.653h-.888v-4.8h1.769a1.561,1.561,0,0,1,1.135.454,1.494,1.494,0,0,1,.464,1.111,1.523,1.523,0,0,1-.464,1.128,1.556,1.556,0,0,1-1.135.457Zm0-.772h.752a.8.8,0,0,0,.806-.813.734.734,0,0,0-.237-.556.8.8,0,0,0-.569-.223h-.752Z" fill="#fff"/>
      <path id="Trazado_96" data-name="Trazado 96" d="M217.27,6382.471a2.441,2.441,0,1,1-1.785.714A2.417,2.417,0,0,1,217.27,6382.471Zm1.125,1.321a1.586,1.586,0,0,0-2.249,0,1.719,1.719,0,0,0,0,2.33,1.577,1.577,0,0,0,2.242,0,1.6,1.6,0,0,0,.454-1.165A1.621,1.621,0,0,0,218.4,6383.792Z" fill="#fff"/>
      <path id="Trazado_97" data-name="Trazado 97" d="M221.315,6387.362v-4.8h.894v4H224.2v.8Z" fill="#fff"/>
      <path id="Trazado_98" data-name="Trazado 98" d="M225.556,6387.362v-4.81h.9v4.81Z" fill="#fff"/>
      <path id="Trazado_99" data-name="Trazado 99" d="M228.294,6387.362v-4.8h3.055v.786h-2.168v1.206h1.782v.779h-1.782v1.246h2.25v.786Z" fill="#fff"/>
      <path id="Trazado_100" data-name="Trazado 100" d="M233.89,6387.362v-4h-1.382v-.8h3.659v.8h-1.383v4Z" fill="#fff"/>
      <path id="Trazado_101" data-name="Trazado 101" d="M237.528,6387.362v-4.81h.9v4.81Z" fill="#fff"/>
      <path id="Trazado_102" data-name="Trazado 102" d="M240.272,6387.362v-4.8h.9v4h1.985v.8Z" fill="#fff"/>
      <path id="Trazado_103" data-name="Trazado 103" d="M244.514,6387.362v-4.8h3.055v.786H245.4v1.206h1.782v.779H245.4v1.246h2.25v.786Z" fill="#fff"/>
      <path id="Trazado_104" data-name="Trazado 104" d="M252.366,6382.552h.888v4.81h-.759l-2.392-3.252v3.252h-.894v-4.81h.766l2.391,3.252Z" fill="#fff"/>
      <path id="Trazado_105" data-name="Trazado 105" d="M257.312,6382.471a2.441,2.441,0,1,1-1.785.714A2.417,2.417,0,0,1,257.312,6382.471Zm1.125,1.321a1.587,1.587,0,0,0-2.25,0,1.725,1.725,0,0,0,0,2.33,1.578,1.578,0,0,0,2.243,0,1.6,1.6,0,0,0,.454-1.165A1.621,1.621,0,0,0,258.437,6383.792Z" fill="#fff"/>
      <path id="Trazado_106" data-name="Trazado 106" d="M265.87,6382.471a2.441,2.441,0,1,1-1.786.714A2.415,2.415,0,0,1,265.87,6382.471Zm1.124,1.321a1.585,1.585,0,0,0-2.249,0,1.722,1.722,0,0,0,0,2.33,1.577,1.577,0,0,0,2.242,0,1.6,1.6,0,0,0,.454-1.165A1.621,1.621,0,0,0,266.994,6383.792Z" fill="#fff"/>
      <path id="Trazado_107" data-name="Trazado 107" d="M269.2,6387.362l1.518-2.439-1.464-2.371h1.016l1.024,1.694,1.023-1.694h1.016l-1.463,2.371,1.517,2.439h-1l-1.09-1.768-1.1,1.768Z" fill="#fff"/>
      <path id="Trazado_108" data-name="Trazado 108" d="M274.725,6387.362v-4.81h.894v4.81Z" fill="#fff"/>
      <path id="Trazado_109" data-name="Trazado 109" d="M279.617,6385.885H277.3v-.738h2.318Z" fill="#fff"/>
      <path id="Trazado_110" data-name="Trazado 110" d="M281.3,6387.362v-4.8h1.727a1.641,1.641,0,0,1,1.094.349,1.159,1.159,0,0,1,.417.938,1.125,1.125,0,0,1-.183.64,1.113,1.113,0,0,1-.454.4,1.191,1.191,0,0,1,.61.393,1.1,1.1,0,0,1,.264.746,1.2,1.2,0,0,1-.443.969,1.784,1.784,0,0,1-1.169.365Zm.887-2.8h.786a.626.626,0,0,0,.478-.183.636.636,0,0,0,.173-.454.55.55,0,0,0-.183-.42.691.691,0,0,0-.488-.169h-.766Zm0,2.012h.955a.711.711,0,0,0,.505-.186.617.617,0,0,0,.2-.471.571.571,0,0,0-.217-.454.809.809,0,0,0-.542-.183h-.9Z" fill="#fff"/>
      <path id="Trazado_111" data-name="Trazado 111" d="M286.338,6387.362v-4.81h.894v4.81Z" fill="#fff"/>
      <path id="Trazado_112" data-name="Trazado 112" d="M291.277,6382.471a2.44,2.44,0,1,1-1.786.714A2.413,2.413,0,0,1,291.277,6382.471Zm1.125,1.321a1.587,1.587,0,0,0-2.25,0,1.722,1.722,0,0,0,0,2.33,1.578,1.578,0,0,0,2.243,0,1.732,1.732,0,0,0,.007-2.33Z" fill="#fff"/>
      <path id="Trazado_113" data-name="Trazado 113" d="M295.329,6387.362v-4.8h1.72a2.376,2.376,0,0,1,1.755.691,2.462,2.462,0,0,1,0,3.421,2.376,2.376,0,0,1-1.755.691Zm.887-.786h.759a1.551,1.551,0,0,0,1.138-.457,1.617,1.617,0,0,0-1.138-2.774h-.759Z" fill="#fff"/>
      <path id="Trazado_114" data-name="Trazado 114" d="M301.06,6387.362v-4.8h3.056v.786h-2.168v1.206h1.782v.779h-1.782v1.246H304.2v.786Z" fill="#fff"/>
      <path id="Trazado_115" data-name="Trazado 115" d="M309.631,6384.727v2.256a3.2,3.2,0,0,1-1.762.461,2.49,2.49,0,0,1-1.836-.7,2.421,2.421,0,0,1-.7-1.792,2.313,2.313,0,0,1,.755-1.788,2.61,2.61,0,0,1,1.826-.691,3.235,3.235,0,0,1,1.572.386v.921a2.823,2.823,0,0,0-1.545-.454,1.691,1.691,0,0,0-1.206.461,1.582,1.582,0,0,0-.488,1.206,1.558,1.558,0,0,0,.448,1.172,1.65,1.65,0,0,0,1.2.434,3.028,3.028,0,0,0,.915-.149v-.976h-1.132v-.745Z" fill="#fff"/>
      <path id="Trazado_116" data-name="Trazado 116" d="M311.291,6387.362v-4.8h1.816a1.721,1.721,0,0,1,1.2.416,1.4,1.4,0,0,1,.457,1.081,1.362,1.362,0,0,1-.285.844,1.408,1.408,0,0,1-.752.511l1.322,1.951h-1.03l-1.186-1.788h-.651v1.788Zm.894-2.554h.868a.794.794,0,0,0,.576-.2.711.711,0,0,0,.21-.535.7.7,0,0,0-.21-.532.8.8,0,0,0-.576-.2h-.868Z" fill="#fff"/>
      <path id="Trazado_117" data-name="Trazado 117" d="M315.892,6387.362l1.856-4.81h.894l1.857,4.81h-.915l-.447-1.178h-1.884l-.447,1.178Zm1.619-1.964h1.362l-.678-1.85Z" fill="#fff"/>
      <path id="Trazado_118" data-name="Trazado 118" d="M321.766,6387.362v-4.8h1.721a2.378,2.378,0,0,1,1.755.691,2.462,2.462,0,0,1,0,3.421,2.378,2.378,0,0,1-1.755.691Zm.887-.786h.759a1.616,1.616,0,1,0,0-3.231h-.759Z" fill="#fff"/>
      <path id="Trazado_119" data-name="Trazado 119" d="M326.813,6387.362l1.857-4.81h.894l1.857,4.81h-.915l-.447-1.178h-1.884l-.447,1.178Zm1.62-1.964H329.8l-.678-1.85Z" fill="#fff"/>
      <path id="Trazado_120" data-name="Trazado 120" d="M332.688,6387.362v-4.8h1.727a1.646,1.646,0,0,1,1.1.349,1.158,1.158,0,0,1,.416.938,1.125,1.125,0,0,1-.183.64,1.106,1.106,0,0,1-.454.4,1.191,1.191,0,0,1,.61.393,1.1,1.1,0,0,1,.264.746,1.193,1.193,0,0,1-.443.969,1.784,1.784,0,0,1-1.169.365Zm.887-2.8h.786a.624.624,0,0,0,.478-.183.636.636,0,0,0,.173-.454.55.55,0,0,0-.183-.42.691.691,0,0,0-.488-.169h-.766Zm0,2.012h.955a.711.711,0,0,0,.505-.186.617.617,0,0,0,.2-.471.571.571,0,0,0-.217-.454.809.809,0,0,0-.542-.183h-.9Z" fill="#fff"/>
      <path id="Trazado_121" data-name="Trazado 121" d="M337.722,6387.362v-4.8h.894v4H340.6v.8Z" fill="#fff"/>
      <path id="Trazado_122" data-name="Trazado 122" d="M341.963,6387.362v-4.8h3.056v.786h-2.168v1.206h1.782v.779h-1.782v1.246H345.1v.786Z" fill="#fff"/>
      <path id="Trazado_123" data-name="Trazado 123" d="M348.115,6382.471a2.369,2.369,0,0,1,1.233.318v.888a2.017,2.017,0,0,0-1.2-.387,1.028,1.028,0,0,0-.562.139.438.438,0,0,0-.217.39.448.448,0,0,0,.189.369,3.062,3.062,0,0,0,.651.335c.18.073.32.132.42.177a3.462,3.462,0,0,1,.366.2,1.387,1.387,0,0,1,.332.267,1.33,1.33,0,0,1,.2.346,1.19,1.19,0,0,1,.088.467,1.305,1.305,0,0,1-.481,1.057,1.915,1.915,0,0,1-1.267.4,2.388,2.388,0,0,1-1.429-.407v-.948a2.048,2.048,0,0,0,1.375.542,1.054,1.054,0,0,0,.613-.166.521.521,0,0,0,.24-.451.476.476,0,0,0-.213-.4,3.829,3.829,0,0,0-.742-.373c-.189-.077-.342-.146-.457-.207a2.818,2.818,0,0,1-.386-.254,1.01,1.01,0,0,1-.319-.393,1.238,1.238,0,0,1-.105-.521,1.252,1.252,0,0,1,.457-1.007A1.826,1.826,0,0,1,348.115,6382.471Z" fill="#fff"/>
    </g>
    <path id="Trazado_124" data-name="Trazado 124" d="M165.712,6352.6a.752.752,0,0,1,.752-.752h8a12.593,12.593,0,0,1,4.848.912,11.764,11.764,0,0,1,3.807,2.473,10.975,10.975,0,0,1,2.473,3.677,11.746,11.746,0,0,1,.879,4.555,11.864,11.864,0,0,1-.879,4.571,10.947,10.947,0,0,1-2.473,3.694,11.763,11.763,0,0,1-3.807,2.472,12.6,12.6,0,0,1-4.848.912h-8a.753.753,0,0,1-.752-.752Zm8.232,17.307a6.6,6.6,0,0,0,2.473-.455,5.842,5.842,0,0,0,1.985-1.3,6.113,6.113,0,0,0,1.334-2.033,6.908,6.908,0,0,0,.488-2.652,6.821,6.821,0,0,0-.488-2.62,6.135,6.135,0,0,0-1.334-2.033,5.848,5.848,0,0,0-1.985-1.3,6.6,6.6,0,0,0-2.473-.455h-1.46a.751.751,0,0,0-.752.752v11.349a.751.751,0,0,0,.752.751Z" fill="#fff"/>
    <path id="Trazado_125" data-name="Trazado 125" d="M195.845,6351.818h4.789a.753.753,0,0,1,.7.484l8.309,21.794a.752.752,0,0,1-.7,1.02h-4.533a.753.753,0,0,1-.706-.494l-1.364-3.731a.751.751,0,0,0-.705-.493h-6.791a.751.751,0,0,0-.706.493l-1.364,3.731a.752.752,0,0,1-.706.494h-4.564a.752.752,0,0,1-.7-1.021l8.34-21.794a.752.752,0,0,1,.7-.483m4.348,12.573-1.258-3.667a.752.752,0,0,0-1.422,0l-1.258,3.667a.752.752,0,0,0,.711,1h2.515a.753.753,0,0,0,.712-1" fill="#fff"/>
    <path id="Trazado_126" data-name="Trazado 126" d="M213.426,6351.85h4.581a.752.752,0,0,1,.752.752V6369a.752.752,0,0,0,.752.752h7.054a.752.752,0,0,1,.752.752v3.865a.753.753,0,0,1-.752.752H213.426a.753.753,0,0,1-.752-.752V6352.6a.752.752,0,0,1,.752-.752" fill="#fff"/>
    <path id="Trazado_127" data-name="Trazado 127" d="M231.576,6351.85h13.855a.751.751,0,0,1,.751.752v3.7a.751.751,0,0,1-.751.752H237.6a.752.752,0,0,0-.752.752v2.3a.752.752,0,0,0,.752.752h6.045a.752.752,0,0,1,.752.751v3.573a.752.752,0,0,1-.752.752H237.6a.752.752,0,0,0-.752.751v2.467a.752.752,0,0,0,.752.751h8.355a.752.752,0,0,1,.752.752v3.7a.752.752,0,0,1-.752.752H231.576a.753.753,0,0,1-.752-.752V6352.6a.752.752,0,0,1,.752-.752" fill="#fff"/>
    <path id="Trazado_128" data-name="Trazado 128" d="M255.758,6375.116h-4.516a.753.753,0,0,1-.752-.752V6352.6a.752.752,0,0,1,.752-.752h8.392a8.963,8.963,0,0,1,3.319.6,7.736,7.736,0,0,1,2.635,1.692,7.953,7.953,0,0,1,1.741,2.586,8.254,8.254,0,0,1,.635,3.254,8.339,8.339,0,0,1-.635,3.287,7.932,7.932,0,0,1-1.741,2.586,7.736,7.736,0,0,1-2.635,1.692,8.963,8.963,0,0,1-3.319.6h-2.372a.752.752,0,0,0-.752.752v5.46a.752.752,0,0,1-.752.752m3.062-12.17a2.779,2.779,0,0,0,2.067-.846,2.9,2.9,0,0,0,.829-2.115,2.846,2.846,0,0,0-.829-2.1,2.806,2.806,0,0,0-2.067-.829h-1.558a.752.752,0,0,0-.752.752v4.386a.751.751,0,0,0,.752.751Z" fill="#fff"/>
    <path id="Trazado_129" data-name="Trazado 129" d="M271.666,6351.85h4.582a.751.751,0,0,1,.751.752V6369a.752.752,0,0,0,.752.752H284.8a.752.752,0,0,1,.752.752v3.865a.753.753,0,0,1-.752.752H271.666a.752.752,0,0,1-.751-.752V6352.6a.751.751,0,0,1,.751-.752" fill="#fff"/>
    <path id="Trazado_130" data-name="Trazado 130" d="M297.148,6351.818h4.789a.752.752,0,0,1,.7.484l8.31,21.794a.752.752,0,0,1-.7,1.02h-4.532a.752.752,0,0,1-.706-.494l-1.364-3.731a.752.752,0,0,0-.706-.493h-6.791a.752.752,0,0,0-.706.493l-1.363,3.731a.754.754,0,0,1-.706.494h-4.564a.753.753,0,0,1-.7-1.021l8.341-21.794a.751.751,0,0,1,.7-.483m4.347,12.573-1.258-3.667a.752.752,0,0,0-1.422,0l-1.257,3.667a.752.752,0,0,0,.711,1h2.515a.752.752,0,0,0,.711-1" fill="#fff"/>
    <path id="Trazado_131" data-name="Trazado 131" d="M321.545,6351.428a13.511,13.511,0,0,1,3.433.422,11.109,11.109,0,0,1,2.446.943.757.757,0,0,1,.4.667v3.943a.758.758,0,0,1-1.112.675,9.84,9.84,0,0,0-1.67-.712,10.565,10.565,0,0,0-3.3-.537,4.494,4.494,0,0,0-2.115.407,1.286,1.286,0,0,0-.748,1.187,1.394,1.394,0,0,0,.8,1.221,15.713,15.713,0,0,0,2.359,1.057q1.2.423,2.489.96a9.722,9.722,0,0,1,2.327,1.367,6.962,6.962,0,0,1,1.724,2.033,5.916,5.916,0,0,1,.683,2.961,7.45,7.45,0,0,1-.6,3.01,6.445,6.445,0,0,1-1.773,2.375,8.45,8.45,0,0,1-2.847,1.546,12.208,12.208,0,0,1-3.823.553,14.908,14.908,0,0,1-4.133-.553,10.9,10.9,0,0,1-2.838-1.227.756.756,0,0,1-.35-.638v-4.17a.752.752,0,0,1,1.179-.617,11.837,11.837,0,0,0,1.879,1.023,9.346,9.346,0,0,0,3.775.781,4.433,4.433,0,0,0,2.375-.521,1.593,1.593,0,0,0,.814-1.4,1.672,1.672,0,0,0-1.074-1.5,26.811,26.811,0,0,0-2.7-1.171q-.977-.392-2.1-.9a9.008,9.008,0,0,1-2.082-1.3,6.524,6.524,0,0,1-1.578-1.936,5.713,5.713,0,0,1-.619-2.765,6.824,6.824,0,0,1,.586-2.831,6.588,6.588,0,0,1,1.708-2.278,8.108,8.108,0,0,1,2.766-1.529,11.644,11.644,0,0,1,3.726-.553" fill="#fff"/>
    <path id="Trazado_132" data-name="Trazado 132" d="M336.587,6357.22h-4.711a.753.753,0,0,1-.752-.752V6352.6a.752.752,0,0,1,.752-.751h16.978a.751.751,0,0,1,.752.751v3.866a.753.753,0,0,1-.752.752h-4.679a.751.751,0,0,0-.751.751v16.393a.753.753,0,0,1-.752.752h-4.581a.753.753,0,0,1-.752-.752v-16.393a.751.751,0,0,0-.752-.751" fill="#fff"/>
    <path id="Trazado_133" data-name="Trazado 133" d="M155.874,6353.161a1.084,1.084,0,0,0,.286-.867.853.853,0,0,0-.827-.644H126.572a.819.819,0,0,0-.523.189c-3.877,3.236-5.275,10.38-5.314,14.449-.077,3.925.982,7.809,1.632,11.494a28.089,28.089,0,0,1,.4,7.8c-.03.158-.061.339-.092.522a.982.982,0,0,0,.969,1.144H152.6a.816.816,0,0,0,.792-.617c.978-3.874.049-6.778-.934-9.853a23.519,23.519,0,0,1-1.31-9.381C151.7,6359.322,153.975,6355.938,155.874,6353.161Zm-22.412,3.1h8.419a1.129,1.129,0,0,1,0,2.259h-8.419a1.129,1.129,0,1,1,0-2.259Zm2.8,25.207a8.551,8.551,0,0,1-5.15-1.25,6.029,6.029,0,0,1-2.516-4.2l-1.223.172a.286.286,0,0,1-.265-.464l2.842-3.5a.286.286,0,0,1,.4-.042l3.6,2.916a.286.286,0,0,1-.164.508l-1.288.074a3.134,3.134,0,0,0,1.027,3.273,14.345,14.345,0,0,0,2.853,1.973A.286.286,0,0,1,136.263,6381.468Zm1.186-11.367.577-1.265a3.23,3.23,0,0,0-3.35-.627,14.379,14.379,0,0,0-3.132,1.491.286.286,0,0,1-.4-.375,8.55,8.55,0,0,1,3.647-3.842,6.339,6.339,0,0,1,4.94-.17l.413-1.068a.287.287,0,0,1,.535,0l1.618,4.207a.287.287,0,0,1-.164.37l-4.323,1.673A.286.286,0,0,1,137.449,6370.1Zm6.9,11.121a.286.286,0,0,1-.243.476l-4.483-.468a.286.286,0,0,1-.255-.314l.471-4.612a.286.286,0,0,1,.515-.141l.767,1.039a3.135,3.135,0,0,0,2.178-2.65,14.393,14.393,0,0,0,.093-3.467.286.286,0,0,1,.517-.189,8.553,8.553,0,0,1,1.767,4.994,5.859,5.859,0,0,1-2.187,4.362Z" fill="#fff"/>
  </g>
</svg>
