<svg xmlns="http://www.w3.org/2000/svg" width="369.297" height="58.11" viewBox="0 0 369.297 58.11">
  <g id="Grupo_71" data-name="Grupo 71" transform="translate(-1075.27 -55.133)">
    <g id="Grupo_70" data-name="Grupo 70">
      <path id="Trazado_63" data-name="Trazado 63" d="M1147.371,113.112v-7.751h2.787a2.661,2.661,0,0,1,1.766.563,1.874,1.874,0,0,1,.672,1.514,1.838,1.838,0,0,1-1.028,1.684,1.92,1.92,0,0,1,.984.634,1.77,1.77,0,0,1,.427,1.2,1.927,1.927,0,0,1-.716,1.563,2.874,2.874,0,0,1-1.886.59Zm1.432-4.515h1.268a1.01,1.01,0,0,0,.771-.295,1.029,1.029,0,0,0,.278-.732.885.885,0,0,0-.3-.678,1.113,1.113,0,0,0-.787-.273H1148.8Zm0,3.247h1.541a1.144,1.144,0,0,0,.814-.3.992.992,0,0,0,.323-.759.922.922,0,0,0-.35-.733,1.311,1.311,0,0,0-.874-.3H1148.8Z" fill="#e03738"/>
      <path id="Trazado_64" data-name="Trazado 64" d="M1159.046,105.219a3.941,3.941,0,1,1-2.881,1.154A3.895,3.895,0,0,1,1159.046,105.219Zm1.814,2.132a2.56,2.56,0,0,0-3.629,0,2.78,2.78,0,0,0,0,3.76,2.545,2.545,0,0,0,3.618,0,2.587,2.587,0,0,0,.733-1.88A2.615,2.615,0,0,0,1160.86,107.351Z" fill="#e03738"/>
      <path id="Trazado_65" data-name="Trazado 65" d="M1165.583,113.112v-7.751h1.443v6.461h3.2v1.29Z" fill="#e03738"/>
      <path id="Trazado_66" data-name="Trazado 66" d="M1174.776,105.219a3.823,3.823,0,0,1,1.99.514v1.432a3.262,3.262,0,0,0-1.935-.623,1.658,1.658,0,0,0-.907.224.706.706,0,0,0-.35.629.72.72,0,0,0,.306.6,4.918,4.918,0,0,0,1.049.542q.438.174.678.284a5.832,5.832,0,0,1,.59.322,2.186,2.186,0,0,1,.536.432,2.137,2.137,0,0,1,.328.558,1.927,1.927,0,0,1,.142.754,2.108,2.108,0,0,1-.776,1.7,3.093,3.093,0,0,1-2.044.645,3.866,3.866,0,0,1-2.307-.656v-1.53a3.306,3.306,0,0,0,2.219.874,1.71,1.71,0,0,0,.99-.267.842.842,0,0,0,.388-.727.765.765,0,0,0-.345-.645,6.13,6.13,0,0,0-1.2-.6c-.306-.124-.552-.236-.737-.334a4.539,4.539,0,0,1-.624-.41,1.655,1.655,0,0,1-.513-.634,2.159,2.159,0,0,1,.568-2.465A2.939,2.939,0,0,1,1174.776,105.219Z" fill="#e03738"/>
      <path id="Trazado_67" data-name="Trazado 67" d="M1178.712,113.112l2.995-7.762h1.443l2.995,7.762h-1.476l-.721-1.9h-3.039l-.722,1.9Zm2.612-3.17h2.2l-1.093-2.985Z" fill="#e03738"/>
      <path id="Trazado_68" data-name="Trazado 68" d="M1190.55,105.219a3.823,3.823,0,0,1,1.99.514v1.432a3.262,3.262,0,0,0-1.935-.623,1.66,1.66,0,0,0-.907.224.708.708,0,0,0-.35.629.72.72,0,0,0,.306.6,4.906,4.906,0,0,0,1.05.542q.437.174.677.284a5.7,5.7,0,0,1,.59.322,2.184,2.184,0,0,1,.536.432,2.133,2.133,0,0,1,.328.558,1.925,1.925,0,0,1,.142.754,2.105,2.105,0,0,1-.776,1.7,3.092,3.092,0,0,1-2.044.645,3.866,3.866,0,0,1-2.307-.656v-1.53a3.309,3.309,0,0,0,2.22.874,1.709,1.709,0,0,0,.989-.267.841.841,0,0,0,.388-.727.766.766,0,0,0-.344-.645,6.175,6.175,0,0,0-1.2-.6c-.305-.124-.551-.236-.737-.334a4.614,4.614,0,0,1-.624-.41,1.654,1.654,0,0,1-.513-.634,2.159,2.159,0,0,1,.568-2.465A2.94,2.94,0,0,1,1190.55,105.219Z" fill="#e03738"/>
      <path id="Trazado_69" data-name="Trazado 69" d="M1199.187,113.112v-7.751h2.776a3.833,3.833,0,0,1,2.831,1.116,3.971,3.971,0,0,1,0,5.52,3.836,3.836,0,0,1-2.831,1.115Zm1.431-1.268h1.225a2.5,2.5,0,0,0,1.836-.738,2.61,2.61,0,0,0-1.836-4.477h-1.225Z" fill="#e03738"/>
      <path id="Trazado_70" data-name="Trazado 70" d="M1208.434,113.112v-7.751h4.931v1.268h-3.5v1.946h2.875v1.257h-2.875v2.012h3.629v1.268Z" fill="#e03738"/>
      <path id="Trazado_71" data-name="Trazado 71" d="M1221.159,110.445v2.667h-1.432v-7.751h2.853a2.523,2.523,0,0,1,1.831.733,2.412,2.412,0,0,1,.749,1.793,2.456,2.456,0,0,1-.749,1.82,2.511,2.511,0,0,1-1.831.738Zm0-1.247h1.213a1.3,1.3,0,0,0,1.3-1.311,1.187,1.187,0,0,0-.382-.9,1.3,1.3,0,0,0-.919-.361h-1.213Z" fill="#e03738"/>
      <path id="Trazado_72" data-name="Trazado 72" d="M1231.03,105.219a3.941,3.941,0,1,1-2.881,1.154A3.9,3.9,0,0,1,1231.03,105.219Zm1.815,2.132a2.56,2.56,0,0,0-3.629,0,2.778,2.778,0,0,0,0,3.76,2.545,2.545,0,0,0,3.618,0,2.8,2.8,0,0,0,.011-3.76Z" fill="#e03738"/>
      <path id="Trazado_73" data-name="Trazado 73" d="M1237.556,113.112v-7.751H1239v6.461h3.2v1.29Z" fill="#e03738"/>
      <path id="Trazado_74" data-name="Trazado 74" d="M1244.4,113.112V105.35h1.443v7.762Z" fill="#e03738"/>
      <path id="Trazado_75" data-name="Trazado 75" d="M1248.816,113.112v-7.751h4.93v1.268h-3.5v1.946h2.875v1.257h-2.875v2.012h3.629v1.268Z" fill="#e03738"/>
      <path id="Trazado_76" data-name="Trazado 76" d="M1257.845,113.112v-6.461h-2.23v-1.29h5.9v1.29h-2.23v6.461Z" fill="#e03738"/>
      <path id="Trazado_77" data-name="Trazado 77" d="M1263.715,113.112V105.35h1.444v7.762Z" fill="#e03738"/>
      <path id="Trazado_78" data-name="Trazado 78" d="M1268.142,113.112v-7.751h1.444v6.461h3.2v1.29Z" fill="#e03738"/>
      <path id="Trazado_79" data-name="Trazado 79" d="M1274.986,113.112v-7.751h4.93v1.268h-3.5v1.946h2.875v1.257h-2.875v2.012h3.629v1.268Z" fill="#e03738"/>
      <path id="Trazado_80" data-name="Trazado 80" d="M1287.655,105.35h1.433v7.762h-1.225L1284,107.865v5.247h-1.443V105.35h1.236l3.858,5.248Z" fill="#e03738"/>
      <path id="Trazado_81" data-name="Trazado 81" d="M1295.636,105.219a3.941,3.941,0,1,1-2.881,1.154A3.895,3.895,0,0,1,1295.636,105.219Zm1.814,2.132a2.56,2.56,0,0,0-3.629,0,2.78,2.78,0,0,0,0,3.76,2.545,2.545,0,0,0,3.618,0,2.587,2.587,0,0,0,.733-1.88A2.614,2.614,0,0,0,1297.45,107.351Z" fill="#e03738"/>
      <path id="Trazado_82" data-name="Trazado 82" d="M1309.442,105.219a3.943,3.943,0,1,1-2.88,1.154A3.9,3.9,0,0,1,1309.442,105.219Zm1.815,2.132a2.56,2.56,0,0,0-3.629,0,2.777,2.777,0,0,0,0,3.76,2.545,2.545,0,0,0,3.618,0,2.793,2.793,0,0,0,.011-3.76Z" fill="#e03738"/>
      <path id="Trazado_83" data-name="Trazado 83" d="M1314.821,113.112l2.448-3.935-2.361-3.827h1.64l1.651,2.734,1.65-2.734h1.64l-2.361,3.827,2.448,3.935h-1.617l-1.76-2.853-1.772,2.853Z" fill="#e03738"/>
      <path id="Trazado_84" data-name="Trazado 84" d="M1323.73,113.112V105.35h1.443v7.762Z" fill="#e03738"/>
      <path id="Trazado_85" data-name="Trazado 85" d="M1331.622,110.729h-3.738v-1.192h3.738Z" fill="#e03738"/>
      <path id="Trazado_86" data-name="Trazado 86" d="M1334.344,113.112v-7.751h2.788a2.66,2.66,0,0,1,1.765.563,1.872,1.872,0,0,1,.673,1.514,1.843,1.843,0,0,1-1.028,1.684,1.92,1.92,0,0,1,.984.634,1.774,1.774,0,0,1,.426,1.2,1.927,1.927,0,0,1-.716,1.563,2.872,2.872,0,0,1-1.886.59Zm1.432-4.515h1.268a1.007,1.007,0,0,0,.771-.295,1.025,1.025,0,0,0,.279-.732.885.885,0,0,0-.3-.678,1.115,1.115,0,0,0-.787-.273h-1.236Zm0,3.247h1.542a1.144,1.144,0,0,0,.814-.3.992.992,0,0,0,.323-.759.922.922,0,0,0-.35-.733,1.316,1.316,0,0,0-.875-.3h-1.454Z" fill="#e03738"/>
      <path id="Trazado_87" data-name="Trazado 87" d="M1342.466,113.112V105.35h1.443v7.762Z" fill="#e03738"/>
      <path id="Trazado_88" data-name="Trazado 88" d="M1350.436,105.219a3.941,3.941,0,1,1-2.881,1.154A3.895,3.895,0,0,1,1350.436,105.219Zm1.814,2.132a2.56,2.56,0,0,0-3.629,0,2.777,2.777,0,0,0,0,3.76,2.545,2.545,0,0,0,3.618,0,2.793,2.793,0,0,0,.011-3.76Z" fill="#e03738"/>
      <path id="Trazado_89" data-name="Trazado 89" d="M1356.973,113.112v-7.751h2.776a3.837,3.837,0,0,1,2.832,1.116,3.973,3.973,0,0,1,0,5.52,3.841,3.841,0,0,1-2.832,1.115Zm1.432-1.268h1.224a2.505,2.505,0,0,0,1.837-.738,2.61,2.61,0,0,0-1.837-4.477h-1.224Z" fill="#e03738"/>
      <path id="Trazado_90" data-name="Trazado 90" d="M1366.221,113.112v-7.751h4.93v1.268h-3.5v1.946h2.875v1.257h-2.875v2.012h3.629v1.268Z" fill="#e03738"/>
      <path id="Trazado_91" data-name="Trazado 91" d="M1380.049,108.86v3.64a5.152,5.152,0,0,1-2.842.743,4.02,4.02,0,0,1-2.963-1.131,3.906,3.906,0,0,1-1.136-2.892,3.735,3.735,0,0,1,1.218-2.886,4.213,4.213,0,0,1,2.947-1.115,5.234,5.234,0,0,1,2.536.623v1.487a4.547,4.547,0,0,0-2.493-.732,2.725,2.725,0,0,0-1.945.743,2.553,2.553,0,0,0-.788,1.946,2.512,2.512,0,0,0,.722,1.891,2.659,2.659,0,0,0,1.935.7,4.856,4.856,0,0,0,1.476-.241v-1.574h-1.826v-1.2Z" fill="#e03738"/>
      <path id="Trazado_92" data-name="Trazado 92" d="M1382.728,113.112v-7.751h2.929a2.767,2.767,0,0,1,1.941.673,2.251,2.251,0,0,1,.737,1.743,2.2,2.2,0,0,1-.458,1.361,2.276,2.276,0,0,1-1.214.826l2.132,3.148h-1.662l-1.913-2.886h-1.05v2.886Zm1.442-4.121h1.4a1.279,1.279,0,0,0,.929-.328,1.147,1.147,0,0,0,.339-.864,1.129,1.129,0,0,0-.339-.858,1.293,1.293,0,0,0-.929-.322h-1.4Z" fill="#e03738"/>
      <path id="Trazado_93" data-name="Trazado 93" d="M1390.15,113.112l2.995-7.762h1.443l3,7.762h-1.476l-.722-1.9h-3.039l-.721,1.9Zm2.613-3.17h2.2l-1.093-2.985Z" fill="#e03738"/>
      <path id="Trazado_94" data-name="Trazado 94" d="M1399.628,113.112v-7.751h2.777a3.833,3.833,0,0,1,2.831,1.116,3.973,3.973,0,0,1,0,5.52,3.836,3.836,0,0,1-2.831,1.115Zm1.432-1.268h1.224a2.506,2.506,0,0,0,1.837-.738,2.61,2.61,0,0,0-1.837-4.477h-1.224Z" fill="#e03738"/>
      <path id="Trazado_95" data-name="Trazado 95" d="M1407.772,113.112l2.995-7.762h1.443l2.995,7.762h-1.475l-.722-1.9h-3.039l-.722,1.9Zm2.612-3.17h2.2l-1.093-2.985Z" fill="#e03738"/>
      <path id="Trazado_96" data-name="Trazado 96" d="M1417.25,113.112v-7.751h2.787a2.661,2.661,0,0,1,1.766.563,1.874,1.874,0,0,1,.672,1.514,1.838,1.838,0,0,1-1.028,1.684,1.92,1.92,0,0,1,.984.634,1.774,1.774,0,0,1,.426,1.2,1.926,1.926,0,0,1-.715,1.563,2.874,2.874,0,0,1-1.886.59Zm1.431-4.515h1.269a1.01,1.01,0,0,0,.771-.295,1.029,1.029,0,0,0,.278-.732.885.885,0,0,0-.3-.678,1.113,1.113,0,0,0-.787-.273h-1.236Zm0,3.247h1.542a1.144,1.144,0,0,0,.814-.3.992.992,0,0,0,.323-.759.922.922,0,0,0-.35-.733,1.311,1.311,0,0,0-.874-.3h-1.455Z" fill="#e03738"/>
      <path id="Trazado_97" data-name="Trazado 97" d="M1425.372,113.112v-7.751h1.443v6.461h3.2v1.29Z" fill="#e03738"/>
      <path id="Trazado_98" data-name="Trazado 98" d="M1432.215,113.112v-7.751h4.93v1.268h-3.5v1.946h2.875v1.257h-2.875v2.012h3.629v1.268Z" fill="#e03738"/>
      <path id="Trazado_99" data-name="Trazado 99" d="M1442.141,105.219a3.822,3.822,0,0,1,1.989.514v1.432a3.261,3.261,0,0,0-1.934-.623,1.662,1.662,0,0,0-.908.224.709.709,0,0,0-.35.629.72.72,0,0,0,.306.6,4.906,4.906,0,0,0,1.05.542q.437.174.677.284a5.819,5.819,0,0,1,.591.322,2.2,2.2,0,0,1,.535.432,2.11,2.11,0,0,1,.328.558,1.927,1.927,0,0,1,.142.754,2.107,2.107,0,0,1-.775,1.7,3.1,3.1,0,0,1-2.045.645,3.861,3.861,0,0,1-2.306-.656v-1.53a3.3,3.3,0,0,0,2.219.874,1.709,1.709,0,0,0,.989-.267.839.839,0,0,0,.388-.727.766.766,0,0,0-.344-.645,6.19,6.19,0,0,0-1.2-.6c-.306-.124-.552-.236-.738-.334a4.535,4.535,0,0,1-.623-.41,1.648,1.648,0,0,1-.514-.634,2.164,2.164,0,0,1,.568-2.465A2.941,2.941,0,0,1,1442.141,105.219Z" fill="#e03738"/>
    </g>
    <path id="Trazado_100" data-name="Trazado 100" d="M1147.844,57.028a1.214,1.214,0,0,1,1.213-1.213h12.909a20.356,20.356,0,0,1,7.823,1.471,19,19,0,0,1,6.142,3.99,17.742,17.742,0,0,1,3.99,5.932,18.967,18.967,0,0,1,1.417,7.349,19.162,19.162,0,0,1-1.417,7.377,17.7,17.7,0,0,1-3.99,5.959,19.018,19.018,0,0,1-6.142,3.989,20.337,20.337,0,0,1-7.823,1.47h-12.909a1.213,1.213,0,0,1-1.213-1.212Zm13.282,27.925a10.626,10.626,0,0,0,3.99-.736,9.423,9.423,0,0,0,3.2-2.1,9.906,9.906,0,0,0,2.152-3.281,11.164,11.164,0,0,0,.788-4.28,11.015,11.015,0,0,0-.788-4.225,9.921,9.921,0,0,0-2.152-3.282,9.47,9.47,0,0,0-3.2-2.1,10.664,10.664,0,0,0-3.99-.734h-2.357a1.212,1.212,0,0,0-1.212,1.212V83.74a1.212,1.212,0,0,0,1.212,1.213Z" fill="#e03738"/>
    <path id="Trazado_101" data-name="Trazado 101" d="M1196.462,55.763h7.727a1.213,1.213,0,0,1,1.133.781l13.408,35.163a1.213,1.213,0,0,1-1.134,1.645h-7.313a1.212,1.212,0,0,1-1.139-.8l-2.2-6.019a1.212,1.212,0,0,0-1.139-.8h-10.956a1.212,1.212,0,0,0-1.139.8l-2.2,6.019a1.214,1.214,0,0,1-1.14.8h-7.363a1.212,1.212,0,0,1-1.133-1.646l13.456-35.164a1.213,1.213,0,0,1,1.133-.779m7.014,20.286-2.029-5.916a1.213,1.213,0,0,0-2.3,0l-2.029,5.916a1.213,1.213,0,0,0,1.148,1.606h4.058a1.213,1.213,0,0,0,1.147-1.606" fill="#e03738"/>
    <path id="Trazado_102" data-name="Trazado 102" d="M1224.828,55.815h7.391a1.214,1.214,0,0,1,1.213,1.213V83.477a1.213,1.213,0,0,0,1.213,1.213h11.382a1.213,1.213,0,0,1,1.212,1.213V92.14a1.213,1.213,0,0,1-1.212,1.213h-21.2a1.214,1.214,0,0,1-1.213-1.213V57.028a1.214,1.214,0,0,1,1.213-1.213" fill="#e03738"/>
    <path id="Trazado_103" data-name="Trazado 103" d="M1254.112,55.815h22.354a1.213,1.213,0,0,1,1.212,1.213V63a1.213,1.213,0,0,1-1.212,1.213h-12.642a1.213,1.213,0,0,0-1.213,1.212v3.717a1.213,1.213,0,0,0,1.213,1.213h9.754a1.213,1.213,0,0,1,1.213,1.213v5.764a1.213,1.213,0,0,1-1.213,1.213h-9.754a1.213,1.213,0,0,0-1.213,1.213V83.74a1.213,1.213,0,0,0,1.213,1.213h13.481a1.213,1.213,0,0,1,1.213,1.213V92.14a1.213,1.213,0,0,1-1.213,1.213h-23.193a1.214,1.214,0,0,1-1.213-1.213V57.028a1.214,1.214,0,0,1,1.213-1.213" fill="#e03738"/>
    <path id="Trazado_104" data-name="Trazado 104" d="M1293.129,93.352h-7.287a1.213,1.213,0,0,1-1.213-1.212V57.028a1.214,1.214,0,0,1,1.213-1.213h13.539a14.506,14.506,0,0,1,5.355.972,12.52,12.52,0,0,1,4.252,2.73,12.819,12.819,0,0,1,2.809,4.174,13.3,13.3,0,0,1,1.024,5.249,13.439,13.439,0,0,1-1.024,5.3,12.819,12.819,0,0,1-2.809,4.174,12.5,12.5,0,0,1-4.252,2.729,14.485,14.485,0,0,1-5.355.971h-3.827a1.213,1.213,0,0,0-1.212,1.213v8.81a1.213,1.213,0,0,1-1.213,1.212m4.94-19.634a4.481,4.481,0,0,0,3.334-1.365,4.68,4.68,0,0,0,1.338-3.413,4.591,4.591,0,0,0-1.338-3.386,4.528,4.528,0,0,0-3.334-1.339h-2.515a1.213,1.213,0,0,0-1.212,1.213V72.5a1.212,1.212,0,0,0,1.212,1.213Z" fill="#095966"/>
    <path id="Trazado_105" data-name="Trazado 105" d="M1318.8,55.815h7.392a1.213,1.213,0,0,1,1.212,1.213V83.477a1.214,1.214,0,0,0,1.213,1.213h11.382a1.213,1.213,0,0,1,1.213,1.213V92.14a1.214,1.214,0,0,1-1.213,1.213h-21.2a1.214,1.214,0,0,1-1.213-1.213V57.028a1.214,1.214,0,0,1,1.213-1.213" fill="#095966"/>
    <path id="Trazado_106" data-name="Trazado 106" d="M1359.908,55.763h7.727a1.213,1.213,0,0,1,1.133.781l13.407,35.163a1.213,1.213,0,0,1-1.133,1.645h-7.313a1.214,1.214,0,0,1-1.14-.8l-2.2-6.019a1.213,1.213,0,0,0-1.139-.8h-10.956a1.211,1.211,0,0,0-1.139.8l-2.2,6.019a1.212,1.212,0,0,1-1.139.8h-7.364a1.212,1.212,0,0,1-1.132-1.646l13.456-35.164a1.213,1.213,0,0,1,1.133-.779m7.014,20.286-2.029-5.916a1.213,1.213,0,0,0-2.295,0l-2.029,5.916a1.213,1.213,0,0,0,1.148,1.606h4.058a1.213,1.213,0,0,0,1.147-1.606" fill="#095966"/>
    <path id="Trazado_107" data-name="Trazado 107" d="M1399.271,55.133a21.778,21.778,0,0,1,5.539.682,17.959,17.959,0,0,1,3.947,1.522,1.22,1.22,0,0,1,.647,1.075v6.363a1.223,1.223,0,0,1-1.794,1.088,15.956,15.956,0,0,0-2.695-1.149,17.08,17.08,0,0,0-5.329-.866,7.252,7.252,0,0,0-3.412.656,2.074,2.074,0,0,0-1.207,1.917,2.247,2.247,0,0,0,1.286,1.968,25.246,25.246,0,0,0,3.806,1.706q1.941.684,4.016,1.549a15.719,15.719,0,0,1,3.754,2.205,11.259,11.259,0,0,1,2.782,3.281,9.555,9.555,0,0,1,1.1,4.778,12.023,12.023,0,0,1-.972,4.856,10.408,10.408,0,0,1-2.861,3.832,13.608,13.608,0,0,1-4.594,2.494,19.644,19.644,0,0,1-6.168.892,23.99,23.99,0,0,1-6.668-.892,17.494,17.494,0,0,1-4.578-1.98,1.219,1.219,0,0,1-.566-1.029V83.353a1.213,1.213,0,0,1,1.9-.995,19.147,19.147,0,0,0,3.032,1.649,15.066,15.066,0,0,0,6.091,1.261,7.154,7.154,0,0,0,3.832-.84,2.571,2.571,0,0,0,1.312-2.258,2.7,2.7,0,0,0-1.732-2.415,43.279,43.279,0,0,0-4.358-1.89q-1.575-.63-3.386-1.444a14.6,14.6,0,0,1-3.36-2.1,10.567,10.567,0,0,1-2.546-3.124,9.238,9.238,0,0,1-1-4.463,11.016,11.016,0,0,1,.944-4.567,10.622,10.622,0,0,1,2.757-3.675,13.074,13.074,0,0,1,4.462-2.468,18.818,18.818,0,0,1,6.011-.892" fill="#095966"/>
    <path id="Trazado_108" data-name="Trazado 108" d="M1423.541,64.478h-7.6a1.213,1.213,0,0,1-1.213-1.213V57.028a1.212,1.212,0,0,1,1.213-1.212h27.393a1.212,1.212,0,0,1,1.213,1.212v6.237a1.213,1.213,0,0,1-1.213,1.213h-7.549a1.212,1.212,0,0,0-1.212,1.213V92.139a1.213,1.213,0,0,1-1.213,1.213h-7.392a1.213,1.213,0,0,1-1.213-1.213V65.691a1.213,1.213,0,0,0-1.213-1.213" fill="#095966"/>
    <path id="Trazado_109" data-name="Trazado 109" d="M1131.971,57.931a1.75,1.75,0,0,0,.461-1.4,1.375,1.375,0,0,0-1.333-1.039h-46.405a1.317,1.317,0,0,0-.844.306c-6.256,5.221-8.512,16.746-8.574,23.311-.125,6.333,1.584,12.6,2.634,18.545.939,5.316,1.005,10.668.644,12.58-.048.253-.1.546-.148.842a1.584,1.584,0,0,0,1.563,1.845h46.718a1.318,1.318,0,0,0,1.278-.995c1.577-6.251.079-10.937-1.508-15.9a37.951,37.951,0,0,1-2.113-15.135C1125.235,67.871,1128.907,62.411,1131.971,57.931Zm-36.161,5h13.583a1.823,1.823,0,1,1,0,3.645H1095.81a1.823,1.823,0,0,1,0-3.645Zm4.52,40.67a13.8,13.8,0,0,1-8.309-2.018,9.728,9.728,0,0,1-4.061-6.772l-1.972.277a.463.463,0,0,1-.429-.749l4.587-5.644a.463.463,0,0,1,.65-.068l5.814,4.705a.462.462,0,0,1-.264.821l-2.079.12s-1.04,2.6,1.658,5.28a23.239,23.239,0,0,0,4.6,3.183A.461.461,0,0,1,1100.33,103.6Zm1.913-18.34.931-2.042s-1.741-2.019-5.406-1.012a23.247,23.247,0,0,0-5.052,2.407.461.461,0,0,1-.649-.606,13.806,13.806,0,0,1,5.885-6.2,10.23,10.23,0,0,1,7.97-.275l.667-1.723a.462.462,0,0,1,.862,0l2.611,6.787a.463.463,0,0,1-.265.6l-6.974,2.7A.462.462,0,0,1,1102.243,85.262Zm11.14,17.943a.462.462,0,0,1-.393.768l-7.233-.755a.463.463,0,0,1-.412-.507l.76-7.44a.462.462,0,0,1,.832-.228l1.237,1.675s2.749-.553,3.514-4.276a23.165,23.165,0,0,0,.15-5.593.461.461,0,0,1,.834-.305,13.8,13.8,0,0,1,2.851,8.058,9.452,9.452,0,0,1-3.529,7.038Z" fill="#e03738"/>
  </g>
</svg>
