<svg xmlns="http://www.w3.org/2000/svg" width="42.366" height="42.366" viewBox="0 0 42.366 42.366">
  <g id="Grupo_149" data-name="Grupo 149" transform="translate(-212.819 -1119.683)">
    <path id="Trazado_267" data-name="Trazado 267" d="M234,1123.5c5.657,0,6.326.021,8.56.123a11.722,11.722,0,0,1,3.934.73,7.015,7.015,0,0,1,4.02,4.02,11.723,11.723,0,0,1,.729,3.934c.1,2.233.124,2.9.124,8.559s-.022,6.326-.124,8.56a11.711,11.711,0,0,1-.729,3.933,7.02,7.02,0,0,1-4.02,4.021,11.729,11.729,0,0,1-3.934.729c-2.234.1-2.9.123-8.56.123s-6.326-.021-8.56-.123a11.721,11.721,0,0,1-3.933-.729,7.012,7.012,0,0,1-4.02-4.021,11.73,11.73,0,0,1-.73-3.933c-.1-2.234-.123-2.9-.123-8.56s.022-6.326.123-8.559a11.742,11.742,0,0,1,.73-3.934,7.007,7.007,0,0,1,4.02-4.02,11.714,11.714,0,0,1,3.933-.73c2.234-.1,2.9-.123,8.56-.123m0-3.817c-5.753,0-6.474.025-8.734.127a15.558,15.558,0,0,0-5.141.985,10.832,10.832,0,0,0-6.2,6.2,15.54,15.54,0,0,0-.984,5.141c-.1,2.26-.128,2.981-.128,8.734s.025,6.475.128,8.734a15.545,15.545,0,0,0,.984,5.142,10.834,10.834,0,0,0,6.2,6.2,15.536,15.536,0,0,0,5.141.985c2.26.1,2.981.127,8.734.127s6.474-.024,8.734-.127a15.543,15.543,0,0,0,5.142-.985,10.828,10.828,0,0,0,6.195-6.2,15.542,15.542,0,0,0,.985-5.142c.1-2.259.127-2.981.127-8.734s-.024-6.474-.127-8.734a15.537,15.537,0,0,0-.985-5.141,10.826,10.826,0,0,0-6.195-6.2,15.565,15.565,0,0,0-5.142-.985c-2.26-.1-2.981-.127-8.734-.127" fill="#fff"/>
    <path id="Trazado_268" data-name="Trazado 268" d="M234,1129.989a10.878,10.878,0,1,0,10.878,10.877A10.878,10.878,0,0,0,234,1129.989m0,17.938a7.061,7.061,0,1,1,7.061-7.061,7.061,7.061,0,0,1-7.061,7.061" fill="#fff"/>
    <path id="Trazado_269" data-name="Trazado 269" d="M247.852,1129.558a2.542,2.542,0,1,1-2.542-2.542,2.543,2.543,0,0,1,2.542,2.542" fill="#fff"/>
  </g>
</svg>
