<svg xmlns="http://www.w3.org/2000/svg" width="75.377" height="75.378" viewBox="0 0 75.377 75.378">
  <g id="Grupo_252" data-name="Grupo 252" transform="translate(-3346.862 -3449.874)">
    <g id="Grupo_251" data-name="Grupo 251">
      <path id="Trazado_340" data-name="Trazado 340" d="M3357.582,3500.139c-1.12,0-2.206.005-3.293,0a7.174,7.174,0,0,1-7.422-7.428c-.009-2.776,0-5.552,0-8.327a7.182,7.182,0,0,1,5.045-7.246c.1-.038.2-.08.327-.131a24.84,24.84,0,0,1,1.58-8.98c3.222-8.319,9.225-13.737,17.58-16.634a27.553,27.553,0,0,1,9-1.49c3.475-.009,6.963-.109,10.424.134,12.09.849,22.823,9.339,25.436,21.394.4,1.823.505,3.709.755,5.635a7.065,7.065,0,0,1,4.936,5.015,8.392,8.392,0,0,1,.274,2.155c.03,2.775.015,5.551.012,8.327a7.154,7.154,0,0,1-4.862,7.12c-.1.041-.2.1-.311.16-.248,4.668-3,7.54-6.89,9.6a1.426,1.426,0,0,0-.695.64c-1.647,4.993-5.048,8.532-9.388,11.25a25.2,25.2,0,0,1-13.293,3.9c-3.784.047-7.547.065-11.251-1.015a25.254,25.254,0,0,1-17.765-21.515C3357.707,3501.9,3357.653,3501.087,3357.582,3500.139Zm5.433-16.15v.732c0,5.214-.031,10.428.01,15.642a19.746,19.746,0,0,0,14.469,18.807c3.11.869,6.276.742,9.435.662a19.252,19.252,0,0,0,13.8-6.209c.475-.493.888-1.046,1.31-1.549-2.826.21-5.589.4-8.348.645a1.212,1.212,0,0,0-.743.6,5.345,5.345,0,0,1-4.839,2.959c-2.354.035-4.709.024-7.064,0a5.351,5.351,0,0,1-5.45-5.335,5.447,5.447,0,0,1,5.48-5.423c1.654-.02,3.308-.008,4.962,0a21.162,21.162,0,0,1,2.771.057,5.407,5.407,0,0,1,4.391,3.506c1.664-.209,3.339-.348,4.988-.641,3.962-.7,6.081-3.283,6.085-7.312q.009-8.115,0-16.231v-.914h-1.063c-6.139,0-12.278.013-18.417-.005a12.794,12.794,0,0,1-9.471-4.033c-.522-.537-.974-1.142-1.508-1.774-.074.321-.142.583-.195.848a5.682,5.682,0,0,1-6.007,4.964Zm-5.089-7.247c.064-.245.138-.482.188-.724a21.419,21.419,0,0,1,20.558-17.114q5.883-.108,11.77,0a21.328,21.328,0,0,1,19.539,13.758c.505,1.323.845,2.708,1.263,4.074h2a19.845,19.845,0,0,0-1.667-8.3c-4.311-9.452-11.866-14.215-22.082-14.881-3.181-.208-6.388-.089-9.581-.012a23.029,23.029,0,0,0-4.577.527c-8.771,2.016-15.056,7.014-18.278,15.557a19.894,19.894,0,0,0-1.208,7.117Z" fill="#388c8a"/>
    </g>
  </g>
</svg>
