<svg xmlns="http://www.w3.org/2000/svg" width="77.982" height="77.995" viewBox="0 0 77.982 77.995">
  <g id="Grupo_253" data-name="Grupo 253" transform="translate(-3734.249 -3448.674)">
    <path id="Trazado_341" data-name="Trazado 341" d="M3812.231,3490.869c-.594,1.077-1.1,2.213-1.8,3.219-3.936,5.7-7.939,11.35-11.874,17.049a14.013,14.013,0,0,1-12.257,6.4q-12.412-.024-24.824.005a.926.926,0,0,1-1-.573q-6.2-12.5-12.434-24.982c-.077-.154-.149-.31-.236-.492,2.777-2.556,5.585-5,9.294-6.044a15.7,15.7,0,0,1,15.471,3.369,4.9,4.9,0,0,0,3.572,1.314c3.552-.068,7.107-.048,10.66-.014a4.565,4.565,0,1,1-.031,9.127c-2.945.018-5.889-.009-8.833.011a2.267,2.267,0,0,0-2.261,3.1,2.1,2.1,0,0,0,2.043,1.446c3.6.026,7.209.061,10.812-.016a4.787,4.787,0,0,0,3.676-1.889q5.851-7.214,11.716-14.415a4.485,4.485,0,0,1,4.608-1.833,4.35,4.35,0,0,1,3.567,3.515c.016.067.081.122.123.183Z" fill="#095966"/>
    <path id="Trazado_342" data-name="Trazado 342" d="M3749.62,3526.669a3.969,3.969,0,0,1-1.823-2.022q-6.5-13.066-13.042-26.111c-.945-1.891-.595-2.946,1.284-3.88.772-.384,1.536-.782,2.314-1.151a4.564,4.564,0,0,1,6.414,2.178q5.742,11.446,11.432,22.921a4.546,4.546,0,0,1-2.192,6.459c-1.053.541-2.112,1.071-3.168,1.606Z" fill="#095966"/>
    <path id="Trazado_343" data-name="Trazado 343" d="M3785.674,3467.283a13.579,13.579,0,0,1,3.527,8.35c.057.91.031,1.826.028,2.739a2.322,2.322,0,0,1-2.578,2.593q-7.191.009-14.383,0c-2.664,0-5.327,0-7.991,0a2.363,2.363,0,0,1-2.626-2.633,15.265,15.265,0,0,1,1.379-7.77c.611-1.151,1.37-2.223,2.087-3.37A13.881,13.881,0,0,0,3785.674,3467.283Z" fill="#095966"/>
    <path id="Trazado_344" data-name="Trazado 344" d="M3784.657,3457.932a9.288,9.288,0,0,1-9.1,9.323,9.29,9.29,0,1,1-.065-18.581A9.285,9.285,0,0,1,3784.657,3457.932Z" fill="#095966"/>
  </g>
</svg>
